<svg width="1240" height="714" fill="none" xmlns="http://www.w3.org/2000/svg">
    <g stroke="#F0F1F1" stroke-linecap="round" stroke-linejoin="round" opacity=".8">
        <path
            d="M961.09 445.516l-87.63 4.755-40.72 6.018-47.68 7.048-10.81 1.602-36.67 8.5-62.91 14.588-3.07.711-79.08 25.17-18.83 5.997-28.72 11.895-53.11 22.006-5.37 2.223-24.55 13.086-40.34 21.506-3.39 1.812-4.08 2.163-19.49 13.486-33.62 23.248-3.04 2.113-14.74 13.786-21.45 20.064-1.69 1.582-1.26 1.182-.8.751-9.05 4.225-8.01 4.235-7.15 4.275-6.16 4.255-5.36 4.265-4.43 4.226-2.25 3.384-1.46.831-.48.44-2.02 3.144-.22.37" />
        <path
            d="M985.2 447.118l-86.59 3.274-25.15-.121-24.85.371-42.26 6.848-45.71 7.419-10.86 1.762-39.65 9.802-53.01 13.106-8.32 2.062-35.8 11.975-53.1 17.771-6.78 2.263-32.06 13.947-46.87 20.394-5.27 2.293-58.15 32.489-3.93 2.193-7.36 4.115-21.74 15.869-28.37 20.715-3.01 2.193-15.86 15.779-17.83 17.731-1.59 1.582-2.09 2.083-10.33 15.519-12.07 18.151-.49.741-5.9 3.905-.21.731" />
        <path
            d="M1009.16 449.24l-85.39 1.742-35.96 4.265-52.29 6.198-10.99 1.301-30.54 6.198L728.2 482.3l-8.61 1.742-24.29 2.153-23.7 2.543-22.8 2.903-22.11 3.214-21.11 3.494-20.38 3.735-19.35 3.965-67.38 27.563-6.11 2.493-4.74 1.942-4.28 1.752-2.33.952-58.2 30.697-11.68 6.157-2.23 1.172-46.69 30.677-16.53 9.831-3.96 2.914-8.08 5.296-26.83 27.744-7.94 7.119-2.82 1.101-3.89 4.996" />
        <path
            d="M1055.8 455.027l-81.76-1.251-97.92 8.74-23.39 4.085-66.93 11.714-15.69 2.744-25.48 1.261-25.04 1.722-82.81 23.719-6.78 1.942-5.7 1.632-6.79 1.953-21.58 8.129-65.66 24.71-5.37 2.033-18.08 8.76-52.71 25.531-7.51 3.634-.04.02-14.37 8.971-42.17 26.312-5.55 3.464-11.22 9.302-32.13 26.642-2.1 1.742-11.03 4.105-9.02 11.484-17.21 21.926-1.29 1.632-7.66 3.875-3.33 8.52" />
        <path
            d="M1078.25 458.722l-79.37-2.714-96.79 7.189-19.7 3.174-77.74 12.545-8.53 1.372-26.01.771-17.68 4.535-75.11 19.253-12.56 3.224-24.08 2.413-17.7 6.358-71.93 25.831-5.37 1.932-14.06 6.488-63.16 29.145-4.12 1.903-9.89 5.877-1.55.921-47.96 28.474-2.56 1.522-3.04 1.812-8.82 6.889-37.41 29.225-2.13 1.662-11.96 4.015-7.87 9.261-20.84 24.509-1.32 1.562-8.52 3.815-5.55 12.395M85.95 350.381l26.49-59.382.8-1.041 11.86-15.499 39.29-51.292 2.09-1.792 25.49-21.716 45.65-38.907 2.25-1.352 35.78-21.516 50.33-30.266 98.73-40.43 99.72-26.551 94.15-11.955 81.76.21 1.24.2.1.01 55.7 8.992 8.59 1.391 2.45.861 38.25 13.527 7.53 2.663 1.08.74 24.77 17.212 4.75 3.304 1.7 2.443 9.42 13.536 4.43 6.358 1.89 21.886" />
        <path
            d="M868.63 439.839l-40.91 3.174-28.23 2.192-5.45.421-43.73 7.519-38.11 6.558-4.3.741-45.62 11.784-36.36 9.391-5.77 1.492-2.87.741-47.23 16.51-33.29 11.634-4.53.661-7.26 1.752-4.96 1.822-7.2 2.663-46.07 21.987-23.42 11.183-6.14 2.934-6.75 4.125-34.81 21.346-19.15 11.734-2.14 1.311-33.67 27.073-3.58 2.884-8.91 6.097-2.78 2.403-6.16 5.186-20.36 25.201-1.71 2.863-5.4 4.525-.71.491-.8 1.011-.67.851" />
        <path
            d="M845.77 439.589l-38.79 3.814-30.11 2.964-5.51.54-22.37 1.472-21.89 1.692-21.6 1.852-34.23 8.491-40.31 10.012-6.05 1.502-19.5 3.274-38.26 13.796-35.3 12.726-5.34 1.922-16.39 4.325-40.84 20.154-24 11.845-2.85 1.401-2.24 1.102-40.43 26.221-9.27 6.238-9.95 5.106-22.26 18.252-14.57 11.484-2.12 1.822-4.57 4.125-2.81 1.772-1.54 1.422-5.76 4.345-3.21 3.244-1.8 2.023-1.32 1.281-3.75 3.464-2.98 3.324-1.97 2.403-.61.441-3.35 3.714-3.61 5.036-.1.161-.53.791-.81 2.282-1.67 2.193-1.59 1.742-1.49 2.753-1.02 3.154-2.06 3.605-2.57 3.694-1.36 1.682-.72 1.101-.89 1.012-.81 1.812-.76 1.311-3.3 3.735-1.03 3.094-1.1 2.693-2.37 2.493-1.37 4.385-.6 2.493-1.29 1.452-.66 1.101-.58 2.744-.83 4.355-1.63 4.105-2.36 5.947M86.66 341.43l16.01-44.053 1.01-1.502 5.39-8.03 33.72-50.26 6.13-9.141 2.22-2.103 1.06-1.001 2.26-2.143 1.6-1.522 60.79-57.609 2.22-1.482 24.99-16.6 56.97-37.866 3.43-1.562 40.83-18.642 51.99-23.719 99.37-30.356 95.94-15.64 85.37-2.963 53.96 6.318 16.52 1.932 3.03.881 36.8 10.723 13.87 4.045 1.25.72 25.77 14.839 9.07 5.226" />
        <path
            d="M914.76 441.08l-44 1.963-6.14.4-.24.02-45.86 5.517-37.74 4.535-4.8.581-46.15 9.622-39.82 8.31-9.63 2.012-21.82 3.034-20.95 3.294-20.33 3.484-19.47 3.674-18.87 3.825-64.44 25.19-5.42 2.123-12.19 4.766-45.49 22.847-20.73 10.413-6.4 3.214-41.51 26.872-.33.221-15.12 9.791-2.63 1.702-8.93 5.006-8.07 5.016-7.17 4.206-3.33 2.312-3.27 3.054-19.36 21.576-2.02 2.243-2.05 1.912-2.22 1.001-.85 1.152.39 1.021-1.26 1.342-1.43 1.501-1.67 1.773-.02.02-3.57 4.145-1.54 2.002-2.26 5.687.46.591-.87 1.031-1.9 1.311-1.99 2.714-.51.771-.47-.151-1.27 2.634-1.29 1.171-.66 1.091-.02.09" />
        <path
            d="M1120.88 467.773l-29.13-2.193-44.58-3.374-93.24 4.075-104.99 14.047-3.84.821-91.73 19.603-12.61 2.694-87.32 25.641-5.81 1.712-4.61 1.351-3.49 1.022-1.92.56-24.24 2.163-23.4 2.543-22.65 2.923-21.64 3.244-20.78 3.555-19.66 3.804-18.75 4.065-17.57 4.255-16.64 4.436-15.45 4.575-14.54 4.706-13.39 4.776-12.51 4.876-11.43 4.905-10.63 4.956-9.65 4.976-31.03 26.402-3.68 3.134" />
        <path
            d="M961.17 443.553l-72.83-.18-46.26 4.816-36.35 3.784-5.92.611-44.92 8.651-41.74 8.029-10.36 1.993-22.41 2.783-44.73 13.176-42.37 12.485-8.08 2.383-42.84 16.7-38.3 14.928-6.44 2.503-61.07 30.627-4.92 2.473-9.34 4.686-32.76 21.255-23.26 15.099-4.17 2.703-36.55 31.448-2.69 2.313-5.43 4.665-18.08 22.067-10.75 13.116" />
        <path
            d="M1140.81 473.109l-26.86-2.643-43.57-4.295-90.87 2.523-104 12.485-106.02 21.205-2.38.481-94.51 26.312-4.78 1.331-3.4.951-1.95.541-92.71 33.691-1.49.54-22.61 2.564-21.72 2.903-20.87 3.214-19.83 3.484-18.9 3.745-17.72 3.954" />
        <path
            d="M1007.2 447.498l-14.8-.661-30.55-1.361-4.25-.191-20.81-.921-45.02 3.204-36.77 2.613-6.39.461-24.65.761-24.15 1.181-23.83 1.512-23.2 1.852-22.78 2.103-46.54 11.243-37.16 8.971-5.03 1.212-3.66.891-46.43 15.318-36.23 11.955-5.06 1.672-2.64.861-17.58 4.295-45.37 20.535-26.96 12.204-6.52 2.954-41.65 24.279-18.82 10.974-5.39 3.143-7.52 5.707-31.76 25.021-3.46 3.374-26.54 25.711-11.31 10.953-1.37 1.331-12.74 18.072-3.89 6.819-4.06 6.517-6.54 14.648-3.28 7.369M1099.77 683.934l-65.24 8.089-72.58 12.305-9.69-4.215-64.22 13.967M479.29 483.171l-50.83 31.208-1.52.931-1.41.861-.69.43-43.88 33.861-3.76 2.894-8.25 8.25-26.55 26.562-1.49 1.482-1.27 1.271-.71.701-22.18 31.668-11.62 21.987-5.32 9.301-.26 1.061-.97 2.233M709.04 113.004l-63.84-1.231-77.13 7.939-85.58 19.504-88.76 31.278-83.89 42.681-70.89 49.72-1.99 1.402-1.05.731-56.8 57.199-.83.841-39.51 60.152-.63.972-.76 2.212-19.75 57.51-.4 1.141-4.23 58.621 10.92 54.295 18.68 41.561 1.37 3.033 2.21 4.936 28.33 38.166 2.79 5.767 24.35 24.78 3.61 1.983 4.15 5.937 19.36 17.661 3.09 2.193 6.02 5.717 1.11 1.481 2.09 1.562 1.63 1.332" />
        <path
            d="M1177.32 485.284l-22.67-3.424-35-5.277-5.28-.801-85.19-.5-100.75 9.291-107.92 18.682-26.8-.46-100.37 26.482-3.51.921-1.89.501L662.47 532l-24.86 1.732-87.78 33.471-2.65 1.021-1.52.571-73.58 35.833-2.04 1.001-1.12.541-55.76 34.912-1.99 1.251-2.25 1.402-15.92 3.454-.71.631-38.39 34.131-1.46 1.292-12.23 3.514-19.02 27.323M676.95 149.128l-60.93 3.514L544 164.807l-78.35 22.537-79.85 32.86-74.35 42.451-63.35 49.039-1.19.921-47 51.833-1.75 1.922-.89.991-33.23 55.768-.67 1.131-16.64 55.026-.36 1.212-2.36 53.895.01.04 10.74 49.94 20.59 45.575 1.55 2.243 23.52 33.871 3.08 4.435 21.92 23.999 3.26 3.575 3.24 2.202 15.53 13.807M779.08 57.337l-58.61-12.055-1.15-.24-76.72-2.944-86.67 8.04-3.91.36-98.25 22.518-15.11-3.454-13.95-2.373-14.23-1.993-13.2-1-13.62-.712-58.18 28.385-32.77 15.989-1.18.571-1.62.791-11.49 1.361-59.1 43.403-17.87 13.135-.73.531-1.41 1.031-8.35 2.724-.05.05-15.65 17.731-18.98 21.496-15.72 17.822-6.57 7.439-1.35 1.521-23.81 42.992-8.46 15.259-2.13 4.916-2.17 2.933-1.87 3.284-.09.17-.05.181-.25.4-.38.881-.51 1.312-.08.17-1.73 3.674-.6 2.123-.45 1.322-1.44 10.953" />
        <path
            d="M1193.7 492.062l-20.71-3.765-33.22-6.027-4.86-.881-81.88-1.962-98.55 7.689-107.17 17.141-107.2 25.23-91.79 28.745-3.87 1.211-2.69.841-1.53.481-24.59 1.422-83.62 35.172-1.16.481-64.18 34.341-2.09 1.121-1.55.821-.82.441-18.63 2.833-47.4 34.913-1.04.77-.56.411-14.93 3.104-29.54 32.669-.62.681-.33.37-11.5 3.084-.32.681M838.04 436.405l-23.96 1.521-31.48 2.013-4.04.26-22.02.531-21.81.721-16.73 3.434-49.61 10.202-5.03 1.031-20.65 2.343-20.49 2.453-20.34 2.633-20.27 2.764-20.28 2.953-20.31 3.114-20.45 3.364-20.52 3.554-20.72 3.855-.04.02-20.82 4.125-21.07 4.516-21.01 4.835-21.18 5.297-20.91 5.657-20.88 6.187-20.31 6.558-19.97 7.109-23.31 40.569-.52.891-13.91 39.768-.35.981-9.94 8.15-1.02 38.536-4.81 7.96-3.92 8.13-2.7 7.979-1.67 8.05-.07 1.572-.3 6.217.7 7.74 1.98 7.369 1.14 2.713" />
        <path
            d="M859.86 437.596l-28.63 1.061-26.1.972-4.4.17-32.04 4.465-38.03 5.317-3.56.49-36.77 8.36-37.99 8.641-7.54 1.722-19.89 3.134-40.13 13.526-35.06 11.824-6.37 2.143-44.48 20.505-15.03 7.218-2.21.921-14.43 4.716-46.55 26.082-13.43 7.519-6.22 3.494-10.51 5.056-21.15 16.25-18.41 14.557-3.25 2.774-22.92 22.106-9.71 9.141-3.93 3.965-1.49 1.352-1 .951-1.28-.01-4.02 3.864-3.72 5.477-.71 1.742.5.481-.33 3.053-2.66 4.886-9.61 15.589-1.02 1.572" />
        <path
            d="M881.73 438.908l-33.08.4-13.75.16-11.73.141-35.27 4.175-35.61 4.205-3.3.39-39.87 8.31-35.95 7.499-7.86 1.642-20.51 2.964-42.62 13.476-34.84 11.013-6.46 2.043-62.01 24.6-25.82 10.292-5.85 2.563-13.85 4.806-13.16 4.886-12.87 4.205-3.77 1.241-8.5 3.815-11.49 5.937-11.41 5.286-11.11 5.397-10.87 5.567-10.61 5.707-10.45 5.917-10.18 6.077-10.04 6.348-9.68 6.508-9.49 6.808-9 6.958-8.67 7.279-7.99 7.389-7.49 7.689-6.59 7.75-5.89 7.999 6.29 35.453-1.35 7.489-.35 7.349.19 2.823-.81 2.293M1114.85-114l-15.97 53.985-.3.49-22.77 38.337-10.04 16.91-.9.982-27.01 29.595-13.93 15.269-46.73 36.364-48.57 27.783-48.12 20.115-20.79 6.137-1.16.34M1208.83 499.261l-19.08-4.125-16.87-3.635-13.62-2.943-4.94-1.062-78.21-3.384-96.09 6.128-105.99 15.548-107.45 23.829-96.99 28.855-2.81.841-1.47.431-88.24 33.67-1.17.451-69.5 33.57-2.18 1.052-1.61.781-.85.41-20.14 2.313-53.05 34.732-1.1.721-.58.38-16.55 2.743-34.79 32.95-.67.641-.36.35-13.08 2.844-4.13 6.728" />
        <path
            d="M1127.19-114l-15.6 50.571-.45.731-22.39 36.934-12.48 20.575-.5.531-.81.881-43 46.196-49.14 37.635-50.88 28.525-50.25 20.565-22.22 6.347-2.36.681-.28.08M1222.52 506.83l-1.4-.361-16.04-4.095-28.01-7.168-4.51-1.162-74.36-4.705-93.21 4.545-104.51 13.967-107.34 22.367-100.89 28.514-1.52.431-88.11 32.019-2.19.791-1.15.42-74.26 34.121-1.59.731-.88.411-57.02 33.36-1.6.931-1.16.681-.61.36-44.09 33.911-15.79 17.181" />
        <path
            d="M496.31 714.08l42.99-28.054 18.74-.631.52-.25 1-.481 63.37-30.757 21.09.151L725 623.911l92.23-27.523 98.89-22.988 22.62 3.625 21.77 3.964 20.86 4.305 19.88 4.606 18.84 4.906 17.73 5.156 16.6 5.407 15.41 5.627 14.18 5.817 12.92 5.977 11.63 6.137 10.31 6.258 8.99 6.357 7.61 6.428 6.27 6.478 4.87 6.508 3.5 6.518 2.09 6.498.71 6.447-.66 6.388-2.02 6.298-3.36 6.177-4.64 6.047-38.05 1.592-51.98 5.457-11.45 1.702M1138.87-114l-14.68 46.516-.5.811-.88 1.422-21.29 34.492-14.82 23.998-.69.731-.97 1.032-24.96 26.502-19.96 21.195-51.46 38.847-53.06 29.356-52.28 20.985-27.31 7.639-.88.25" />
        <path
            d="M1209.06-114l-21.68 43.082-9.15 10.853-6.72 7.94-4.7 6.197-3.35 5.086-18.1 23.008-6.22 7.95-9.18 9.411-9.31 8.45-7.8 6.438-1.88 1.452-9.06 6.197-9.3 5.647-9.19 4.676-9.02 3.784-8.87 2.864-8.65 2.032-8.47 1.172-8.29.46-8.16-.28-8.03-.851-8.01-1.412-8.01-1.812-8.09-2.143-8.24-2.302-8.44-2.373-8.69-2.263-8.98-2.053-9.28-1.672-9.57-1.2-9.85-.562-10.05.14-10.24.952-10.33 1.782-10.39 2.693-10.35 3.574-10.34 4.456-10.22 5.276-10.19 6.027-3.61 2.403M1234.86 514.729l-16.08-4.856-24.64-7.429-4.66-1.411-70.18-6.008-90.08 3.044-102.65 12.375-106.92 20.885-26.51-1.111-26.56-.601-26.47-.13-26.27.37-90.24 29.716-3.7 1.212-4.26 1.402-24.04 1.832-78.98 34.882-2.09.921-1.13.501-61.4 34.591-2.1 1.182-1.48.831-.83.47-17.77 3.064-44.62 34.922-.99.771-.55.441-14.04 3.254-27.05 32.469-.57.691-.33.39-2.28.681M818.02 431.879l-45.08 1.852-2.19.311-53.58 7.639-4.15.591-10.84 2.493-55.76 12.845-3.71.851-21.66 6.849-48.88 15.458-4.43 1.402-60.78 25.03-4.02 1.662-4.36 1.792-2.47 1.012-1.83.76-38.06 19.955-20.31 10.652-3.37 1.773-5.04 2.643-9.8 6.578-33.51 22.487-10.47 7.028-2.48 1.662-27.53 24.57-1.31 1.532M324.14 617.944l-14.03 21.396-1.84 2.813M1029.79 450.071l-14.52-.961-29.82-1.972M340.24 613.539l-8.37 8.66-16.18 16.73-.64.831-1.3 1.622-6.17 7.84" />
        <path
            d="M838.66 434.282l-44.05.2-21.67-.751-21.68-.69-21.77-.541-21.88-.481-22.11-.33-22.33-.24-22.72-.06-23.05.08-23.58.31-23.99.541-24.62.861-25.02 1.181-25.67 1.632-25.96 2.063-26.51 2.633-26.55 3.164-26.84 3.844-26.49 4.426-26.4 5.166-25.54 5.747-24.95 6.468-23.55 6.958-22.47 7.579-20.58 7.89-19.09 8.35-16.84 8.42-15.12 8.69-12.7 8.491-10.9 8.54-.02.02-8.54 8.12-6.88 8.02-4.67 7.388-3.26 7.179-1.32 6.398-.21 6.147 1.08 4.065.32 1.222 2.9 4.055M1149.93-114l-13.39 41.67-.67 1.092-21.3 34.221-17.41 27.984-.77.81-1.35 1.422-23.7 24.92-22.93 24.12-.94.7-25.78 19.314-26.88 20.154-55.14 30.167-54.19 21.516-30.44 8.35-1.25 1.461-1.07 1.412-1.06 1.192-1.12 1.942-2.35 2.253-1.4 1.171M1245.71 522.919l-14.65-5.246-21.67-7.76-4.26-1.531-65.89-7.199-86.62 1.572-100.49 10.793L846 532.911l-26.35-1.582-103.25 27.674-25.67.16-25.42.581-25.08 1.021-83.88 33.6-2.15.861-1.13.451-69.06 35.102-1.53.781-.86.431-19.4 2.573-48.77 33.841-1.49 1.031-1.62 1.131-15.75 2.924-32.79 33.5-.36.361-12.27 2.963-2.05 3.765" />
        <path
            d="M859.28 436.735l-17.89-1.512-14.56-3.894-11.25-2.253-5.01-1.542-4.95-1.542-17.01-5.316-5.6-1.732-3.94-1.833-4.11-1.902-10.41-4.826-2.7-1.261-11-5.136-.87-.491-10.28-7.379-11.84-8.25-4.27-2.954-6.1-6.888-8.51-9.471-5.39-5.757-2.77-6.078-5.16-10.502-3.62-6.758-2.17-4.025-6.69-11.104-7.72-11.323-9.03-11.584-10.42-11.674-12.07-11.795-13.69-11.704-15.55-11.634-17.18-11.294-19.02-11.003-20.37-10.382-21.95-9.872-22.75-9.031-23.86-8.34-23.92-7.349-24.47-6.568-23.71-5.527-23.74-4.755-22.25-3.755-21.89-3.064-19.88-2.162-19.32-1.592-17.01-.831-16.46-.361-33.94 24.89L200 215.137l-2.04 1.492-13.04 1.963-10.48 2.162-10.05 2.413-7.79 2.523-7.68 2.754-5.79 2.833-5.98 3.054-.07.11-21.49 36.774-9.02 15.429-6.6 11.293-.65 1.122M1255.18 531.329l-13.43-5.717-17.94-7.639-4.45-1.892-5.93-.811-52.58-7.129-2.86-.39-82.95.16-97.97 9.231-105.04 17.852-104.06 25.03-95.07 29.836-1.2.37-78.68 31.198-2.38.951-1.72.681-.89.35-66.5 33.181-1.22.61-.67.331-19.68 1.562-48.35 32.779-.82.551-.44.3-16.43 1.993-19.39 19.363M1160.31-114l-11.58 36.023-.73 1.152-20.62 32.99-19.81 31.698-1.03 1.071-1.46 1.532-21.95 23.038-26.25 27.563-1.03.771-1.78 1.322-22.48 16.77-30.31 22.597-57.04 31.088-55.98 22.037-34.17 10.202-2.21 1.512M977.86-114l6.35 35.783-4.32 38.517L966.53-5.32l-19.91 29.656-24.27 24.79-7.88-2.012-8.35-1.292-8.71-.51-9.09.36-9.34 1.261-9.6 2.183-9.73 3.084-7.07 2.833" />
        <path
            d="M909.32-114l16.61 31.798 6.29 31.188-2.42 29.005-9.29 26.042-13.79 21.736-.57.88-17.03 18.173-.8.85-19.85 15.4-8.18.08-4.36 2.453M1275.03 566.682l-5.36-2.153-25.12-10.052-2.33-.931-57.15-6.728-77.64.911-92.11 9.031-99.2 16.64-23.36-3.244-99.15 24.239-91.37 28.585-79.31 30.927-21.05.151-59.7 30.496-1.39.721-.98.501-.51.25-18.49.881-39.11 27.173M109.92 563.178l-30.3-17.181-3.48-2.493-5.16-3.694-48.64-34.873-23.38-16.76-6.52-6.067-4.78-4.455-61.59-57.38-1.77-2.273-2.87-3.664-56.99-72.788-13.44-26.181" />
        <path
            d="M1263.14 539.95l-12.05-6.198-14.74-7.579-4.13-2.133-5.67-.931-48.17-7.929-2.94-.481-79.01-1.201-95.18 7.719-103.61 16.32-104.01 23.668-97.39 29.075-83 31.378-1.7.641-.93.351-67.12 31.818-1.79.851-1.29.601-.66.32-52.38 31.538-1.27.771-.88.531-.48.29-17.44 1.562-27.08 23.148M871.12-114l21.08 24.68 13.56 28.244 4.48 27.113-2.94 25.08-8.81 22.417-12.35 18.302-.73 1.081-15 15.169-1.03 1.031-14.84 10.933M807.7 427.514l-31.28-.2-46.93 5.186-56.91 11.304-2.11.41-.67.14-61.91 17.501-6.01 1.692-11.09 4.115-53.58 19.854-5.9 2.183-57.4 27.143-3.29 1.552-6.94 3.284-48.63 30.056-11.49 5.937-7.25 5.577-27.51 21.145-12.63 9.712-2.11 1.622-22.32 23.388-4.42 4.556-5.62 5.126-10.94 14.788-1.21 1.702-.55.33-.23.301-.01.17-.28.25" />
        <path
            d="M1279.41 575.463l-5.25-2.544-20.51-9.921-2.33-1.122-52.52-7.589-73.62-.22-89.05 7.679-97.39 15.278-98.37 21.707-92.83 26.452-82.47 29.315-69.15 30.377-18.99.14-50.18 29.065M1170.01-114l-9.42 29.425-.95 1.532-19.24 30.938-22.41 36.023-1.09 1.152-1.94 2.032-20.16 21.196-29.27 30.737-1.35 1.011-1.93 1.442-20.02 14.958-34.1 25.48-1.3.712L985.77 94.1l-36.44 19.834-57.62 22.668-37.72 10.192" />
        <path
            d="M1269.74 548.69l-10.74-6.758-11-6.908-4.38-2.754-5.44-1.081-43.91-8.7-2.67-.531-74.92-2.453-92.11 6.227L922.7 540.55l-103.65 22.257-98.23 27.924-86.49 31.158-.92.32-71.22 32.119-1.29.581-.69.31-54.91 31.258-1.31.75-.92.521-.48.27-35.11 26.062M993.71-114l4.8 30.207-5.41 41.21L978.23-6.32l-.14.36-21.9 31.498-26.41 26.172-28.89 21.015-29.67 16.13-6.72 2.703M826.83 431.329l-29.56-1.743-46.01 3.455-57.04 9.741-1.52.261-1.3.22-3.27.831-59.74 15.248-6.17 1.572-17.08 5.857-52.23 17.912-3.49 1.191-58.64 25.822-4.81 2.122-2.99 1.322-4.19 1.842-51.47 29.696-11.98 5.837-36.75 26.322-.41.29-13.83 9.902-1.94 1.392-24.46 23.047-3.38 3.194M135.06 603.787l-26.32-10.833-15.35-7.98-9.48-4.926-9.55-4.966-71.35-37.075-12.2-8.109-7.74-5.137-8.66-5.757-73.76-48.979-3.93-3.424-5.39-4.686-35.52-30.917-4.81-4.195M1276.67 612.768l-23.57-10.123-1.59-.69-47.89-5.427-67.4 1.001-81.8 7.84-89.83 14.297-91.28 19.744-86.89 23.728-19.29-2.122-77.03 26.882-18.52-1.091-61.28 27.273" />
        <path
            d="M1282.41 584.273l-.22-.43-1.1-8.44-5.8-8.631-.76-1.131-4.35-7.439-3.33-4.075-4.69-4.886-8.54-8.57-10-8.401-11.4-8.23-12.86-7.959-14.23-7.699-15.65-7.349-16.92-6.989-18.24-6.548-19.41-6.107-20.54-5.607-21.53-5.076-22.46-4.535-23.21-3.965-23.91-3.394-24.38-2.804-24.84-2.232-25.03-1.662-25.24-1.132-25.16-.59-38.21 5.076-50.22 6.668-11.06 1.472-24.87 1.331-24.47 1.732-23.75 2.123-41.46 10.883-49.5 12.976-8.38 2.202-38.82 13.677-47.61 16.79-6.58 2.313-34.28 15.619-37.63 17.14-4.11 1.883-3.46 1.572-1.92.871-29.43 17.291-32.76 19.243-4.08 2.403-42.15 32.419-2.79 2.152-2.29 1.762-1.97 1.512-1.13.871-16.98 18.062-14.01 14.898-3.71 3.935-10.54 17.281-8.78 14.407-1.46 2.393-.95.731" />
        <path
            d="M1274.87 557.551l-9.22-7.329-7.79-6.187-4.24-3.364-5.45-1.282-39.09-9.211-2.73-.641-70.62-3.674-88.81 4.826-99.82 13.296-102.98 20.865-25.07-2.043-25.42-1.602-25.66-1.181-25.78-.731-93.75 30.887-1.16.391-78.96 32.87-1.64.69-.91.381-62.26 32.709-1.69.891-1.22.641-.64.341-19.18 1.822-45.64 32.92-.8.57-.42.311-15.85 2.182-15.21 2.373-12.44 14.808M775.07-114l24.98 10.232 5.23 15.199 5.73 15.078 5.66 14.938 5.88 14.858 5.43 14.698 5.37 14.607 4.6 14.378 4.31 14.217 1.22 4.095 3.85 12.925 1.01 3.374M75.48 452.834l-15.44-20.885-30.51-62.766-16.57-66.94-.85-69.584.21-.962 14.37-64.307 1.17-5.257.96-2.032L60.56 93.01l.51-.68.48-.652 47.84-64.187.28-.26 1.02-.962 61.95-58.13.5-.34 74.42-50.862L309.92-114" />
        <path
            d="M1152.63 475.562l-9.16-2.193-8.51-2.573-10.97-2.783-9.29-1.892-8.76-1.773-5.92-1.361-31.48-1.712-45.28-2.463-95.14 5.637-105.73 15.588-8.54 1.943-86.44 19.683-12.52 2.854-3.46 1.071-87.97 27.193-8.13 2.513-1.96.601-.84.34-87.09 34.862-1.5.601-68.09 34.802-2.73 1.402-1.99 1.011-1.12.581-.1.07-52.79 34.902-4.12 2.723-15.01 3.645-3.03 2.873-33.33 31.698-1.42 1.352-11.35 3.624-14.93 23.699M76.67 461.605l-15.94-19.754-.75-1.351-33.65-61.004-20.65-66.861-5.27-70.164 11.52-71.597.36-.891 28.39-70.155.32-.48 45.37-67.452.53-.55 60.58-61.935 74.07-54.526L275.53-114M1009.71-114l3.46 24.97-6.74 43.993L989.55-6.09l-24.08 33.3-28.72 27.564-31.18 21.986-31.91 16.82-8.29 3.215" />
        <path
            d="M925.84-114l11.54 21.846 6.91 33.51-2.53 31.178-9.9 27.994-15.38 24.34-19.07 20.444-21.29 16.59-7.65-.83-10.95 6.307M936.79 444.364l-24.23-.681-45.5 3.965-37.55 3.274-5.55.481-44.18 7.849-43.4 7.71-10.35 1.832-23.24 2.463-43.76 12.194-45.46 12.666-7.99 2.232-40.59 15.019-43.21 15.999-6.7 2.473-63.99 30.627-4.68 2.243-4.33 2.072-5.25 2.513-30.96 19.083-28.16 17.351-4.23 2.603-39.32 32.019-2.56 2.092-2.42 1.963-3.06 2.503-17.53 19.884-13.96 15.839-.8.911-13.44 24.33-3.43 6.207M1278.68 566.462l-8.5-8.26-6.31-2.103-29.65-9.882-2.54-.851-61.71-5.807-81.54 2.153-94.93 10.402-100.74 18.042-24.04-2.863-99.12 25.501-90.28 29.585-76.72 31.378-.72.301-20.94.43-58.7 31.648-.93.501-.5.27-18.22 1.112-17.85 1.351-31.09 24.71" />
        <path
            d="M1284.1 593.044l-4.52-3.434-12.23-9.282-2.05-1.551-41.38-8.611-1.88-.4-65.25-2.283-82.39 5.186-93.03 12.625-96.5 19.164-93.31 24.249-84.81 27.553-72.81 29.085-58.39 28.735" />
        <path
            d="M1253.74 650.113l-22.26-7.79-42.94-3.123-60.68 2.342-73.87 8.03-81.49 13.356-83.37 17.782-15.3-3.444-16.1-3.254-16.84-3.054-17.53-2.834-79.55 24.43-17.54-1.772-60.25 23.298" />
        <path
            d="M1276.16 621.158l-19.33-10.273-1.49-.791-43.52-6.017-63.43.15-78.56 6.769-87.62 13.155-90.18 18.623-86.85 22.737-18.76-2.373-78.06 26.092-18.26-1.332-61.71 26.182M113.72 570.056l-20.79-10.963L89 556.49l-5.66-3.765-6.65-4.405-68.55-45.495-12.68-10.843-5.89-5.046-59.37-50.792-5.36-6.177-4.07-4.686-58.28-67.131-11.49-19.483M909.15 440.89l-17.55-.601-1.09.04-1.97-.1-19.91-.39-22.86-.25-22.6.02-22.44.19-22.17.4-27.3 4.376-38.45 6.167-7.31 1.181-21.19 2.033-30.19 8.13-42.9 11.544-5.81 1.572-18.99 3.424-34.99 13.456-36.08 13.877-5.23 2.012-15.84 4.455-15.49 4.556-15.11 4.696-14.85 4.815-14.63 4.996-14.43 5.147-14.32 5.366-14.15 5.537-14.1 5.817-13.87 6.017-13.81 6.358-13.46 6.568-13.29 6.928-12.74 7.149-12.38 7.529-11.6 7.699-11 8.06-5.07 38.687 2.48 36.113 3.19 12.055-.23 1.832-1.25 2.153-.31.911-1.63 4.705-1.45 4.215-1.3 3.745" />
        <path
            d="M984.25 445.305l-23.12-.771-23.64-.22-24.93-.631-24.22-.31-23.96.09-1.77.02-22.03.401-45.85 6.297-36.76 5.046-5.19.721-46.04 10.323-38.58 8.65-9.6 2.153-46.29 14.467-38.83 12.135-7.59 2.373-18.6 4.125-45.23 19.493-30.22 13.026-6.29 2.713-40.63 22.477-22.95 12.696-3.53 1.962-2.01 1.111-.55.391-33.63 25.411-3.23 3.384-2.96 2.012-2.78 1.892-1.62 1.112-33.8 30.877-6.59 6.027-1.43 1.302-2.86 3.754-18.4 24.09-.59 2.192-.28 1.702-9.37 18.723-3.78 7.559M1215.83 679.198l-22.52-4.686-41.11-.541-56.82 4.125-68.3 8.871-74.82 13.146-10.71-4.115-77.49 17.451-12.67-3.144-13.6 3.775M1179.06-114l-6.86 21.906-.99 1.612-18.15 29.436-24.71 40.078-1.45 1.522-2 2.133-17.98 19.033-32.52 34.451-1.5 1.132-2.51 1.882-17.52 13.156-37.5 28.144-1.73.951-2.34 1.282-15.79 8.64-40.23 23.148-49.11 20.935-2.98.861-7.01 1.993-37.13 10.582-5.97 1.703-5.21 1.101" />
        <path
            d="M871.87 438.317l-12.01-.721-21.82-1.191-21.74-1.002-21.69-.921-10.86 1.262-44.47 5.176-4.55.531-21.71.821-21.62.991-21.6 1.091-21.65 1.262-21.75 1.381-21.95 1.582-22.13 1.742-22.47 1.993-22.71 2.203L514 457.05l-23.35 2.833-23.79 3.264-23.89 3.634-24.23 4.165-24.08 4.606-24.18 5.216-23.68 5.697-32.93 40.099-.73.891-19.04 7.449-18.99 41.189-.46.992-9.54 40.729-9.1 8.45 3.27 38.046 9.75 34.982 2.42 5.156-.14.221-1.95 4.976-1.09 2.543-.48 1.892M71.87 431.809l-11.21-18.282 1.13-8.51-19.78-63.937-4.7-66.781 7.93-47.918 3.33-20.134.17-.411.59-1.431 22.82-55.277 4.11-9.942.47-.711.34-.501 42.15-62.235.39-.57.22-.23 1.1-1.122 56.1-57.1.62-.46.29-.21 1.82-1.352 66.17-49.059 76.96-41.81 81.42-31.769L427.8-114M1284.46 601.784l-3.85-3.924-8.6-8.741-1.81-1.832-36.81-9.111-1.86-.461-60.95-3.204-78.82 4.045-90.51 11.344-95.19 17.922-93.17 23.128-85.66 26.622-20.48-1.312-20.74-1.021-20.94-.741-21.05-.44-66.56 30.707-.53.25-18.89.38-46.72 28.685" />
        <path
            d="M78.42 477.574l-14.03-14.687-4.52-6.538-37.72-54.716-29.35-66.641-14.47-71.066 2.34-73.889.28-1.031L.92 115.227l.34-.641 38.29-72.547.53-.651 55.74-68.343 72.05-61.925L208.48-114M1025.75-114l2.31 19.984-8.24 46.877-18.95 41.27-26.42 35.132-31.16 28.895-33.61 22.938-34.18 17.4-10.22 3.825M1274.33 629.448l-.13-.09-15.08-10.233-1.34-.911-39.18-6.508-59.39-.66-75.2 5.767-85.21 12.044-88.85 17.531-86.59 21.736-18.18-2.613-78.91 25.271-17.91-1.552-61.41 24.85" />
        <path
            d="M1249.32 657.832l-18.17-7.94-38.81-3.564-56.87 1.642-70.66 7.149-79.17 12.385-82.04 16.81-14.47-3.604-80.12 20.965-15.47-2.563-16.05-2.383-16.6-2.183-55.18 19.534M788.61 420.676l-19.71-.821-34.81 3.123-48.59 8.711-56.93 14.748-1.6.41-.57.151-62.86 21.505-1.25.431-.96.33-61 26.532-1.99.871-1.92.831-.81.351-15.2 8.33-43.48 23.819-2.73 1.491-24.92 17.281-24.99 17.331-3.25 2.253-28.76 26.762-1.78 2.333-4.4 3.655-7.62 5.496-7.29 5.587-15.15 21.426.17.641-4.45 4.936-.38.46-4 4.826-4.05 5.406" />
        <path
            d="M815.58 429.076l-7.88-1.562-19.25-3.845-19.55-3.814-19.79-3.845-20.24-3.815-20.64-3.814-21.27-3.745-21.83-3.684-22.67-3.554-23.4-3.385-24.4-3.113-25.21-2.824-26.33-2.403-27.1-1.932-28.17-1.332-49.93 29.526-1.03.611-47.16 34.371-1.07.781-41.04 38.006-.82.761-23.44 6.338-22.5 6.788-21.82 7.419-20.43 7.779-19.32 8.3-17.51 8.501-16.06 8.88-13.96 8.851-12.31 9.061-10.08 8.801-8.39 8.83-6.22 8.36-4.64 8.22-2.65 7.569-1.29 7.339.43 6.568 1.74 7.249 2.05 3.514M59.62 578.116l-17.03-7.059-18.39-8.3M300.79 714.08l8.2-16.21 9.5-3.784.5-.551.85-.921 24.52-26.842 6.62-7.249 13.03-3.915.79-.581 44.04-32.539 6.34-4.686 1.11-.62 1.95-1.102 2.63-1.481 41.77-23.579 20.6-11.624 7.65-3.374 66.33-29.215 10.1-4.446 9.99-3.414 74.41-25.42 13.04-4.456 24.71-2.002 12.64-3.054 80.98-19.574 13.03-3.153 26.27-.251 26.55.291 26.57.851 26.58 1.401 26.34 1.993 26.05 2.543 25.54 3.124 24.97 3.644 24.23 4.185 23.4 4.686 22.42 5.156 21.39 5.587 20.25 6.007 19.05 6.358 17.77 6.708 16.47 6.988 15.1 7.259 13.73 7.469 12.32 7.669 10.92 7.81 9.49 7.949 8.07 8.02 6.65 8.1 5.26 8.12 3.83 8.139 2.44 8.12 1.06 8.09-.34 8.02-1.7 7.949-3.06 7.84-4.42 7.719-5.76 7.579-7.09 7.419-3.88 3.945-4.23 3.644-8.61 5.837-1.34.901-10.66 6.528-.3.221" />
        <path
            d="M783.01 418.944l-11.72-3.625-17.57-5.446-18.04-5.477-18.47-5.557-19.15-5.556-19.79-5.557-20.72-5.497-21.57-5.386-22.73-5.197-23.74-4.935-25.05-4.586-26.09-4.135-27.41-3.574-28.27-2.944-29.4-2.193-29.82-1.401-30.53-.501-30.3.371-30.42 1.321-29.41 2.153-28.87 3.054L246.85 358l-25.99 4.465-23.59 4.896-22.11 5.417-19.33 5.547-17.69 5.867-14.79 5.696-13.24 5.828-10.41 5.426-9.09 5.447-6.51 4.886-5.49 4.855-3.23 4.216-2.56 4.175M849.77-114l14 10.923 21.54 26.622 11.68 26.532 3.36 25.351-3.56 23.318-8.89 20.765-11.98 16.68-.85 1.182-14.24 13.696-1.18 1.132-6.42 4.495M1283.6 610.425l-3.01-4.446-5.33-7.869-1.55-2.293-32.35-9.561-1.76-.521-56.61-4.015-75.11 2.954-87.79 10.132-93.63 16.68-92.78 21.997-86.3 25.681-20.15-1.592-74.4 28.384-18.89-.611-19-.36-19.02-.11-53.33 29.205M805.62 425.992l-17.17-2.323-33.09 1.462-47.75 6.888-57.42 13.126-1.1.25-.94.221-61.86 19.233-1.94.611-1.99.61-.75.241-5.44 2.182-57 22.898-5.77 2.313-54.94 27.904-9.63 4.885-28.92 18.613-24.33 15.649-3.43 2.202-5.03 4.176-30.29 25.08-3.21 3.264-7.52 5.627-.57-.151-7.05 5.647-17.25 21.887-5.18 5.136-2.86 2.913-1.71 2.684-5.75 9.631-.62.981" />
        <path
            d="M446.56 586.105l-16.8 4.175-15.63 4.316-14.65 4.485-13.47 4.576-12.53 4.675-11.38 4.726-10.48 4.796-9.9 4.345-8.08 5.296-7.58 4.826-13.88 15.299-12.6 13.887M1271.21 637.638l-12.37-11.334-34.88-6.948-55.31-1.382-71.72 4.816-82.62 10.983-87.32 16.45-86.1 20.735-80 23.588-17.08-1.992-58.21 21.526M674.15-114l13.29 9.752 16.21 12.195 11.63 8.67 4.61 3.434.16.05 46.41 13.597 1.4.68 34.56 16.76.15.08.25.181 25.16 19.604 1.17 1.502 14.84 19.113.1.12.24.67 7.19 19.744-.95 14.178-1.56 13.856-.35 2.653" />
        <path
            d="M1243.56 665.411l-14.15-8.02-34.71-3.944-52.96 1.001-67.36 6.318-76.68 11.443-80.52 15.87-13.58-3.765-79.77 20.084-14.82-2.723-39.74 12.405M889.44-114l10.7 12.015 15.23 30.136 5.51 29.075-2.59 26.963-8.91 24.179-12.97 19.974-.65 1.001-15.91 16.68-.87.911-17.57 13.367-1.12.85-5.14.581M676.95 149.128l8.36 13.586 6.97 13.667 5.5 14.037 4 13.916 2.42 13.987.95 13.697-.55 13.526-1.83 13.086-2.63 12.976-1.47 2.873M1281.46 618.995l-1.9-4.976-2.56-6.728-1.14-2.984-27.9-9.872-1.71-.6-52.23-4.776-71.31 1.952-84.89 8.951-91.83 15.479-92.15 20.875-86.71 24.7-19.75-1.852-75.8 27.643-18.75-.851-60.13 28.124M1041.72-114l1.43 15.118-9.96 49.84-20.47 42.251-.68 1.402-28.9 36.915-33.71 30.226-36.08 23.809-36.54 17.952-11.02 3.954-.74.271M903.68 440.46l-11.98-.171-1.19.04-41.53 2.854-8.4.701-23.4.751-44.54 6.858-38.72 5.957-3.92.601-22.1 2.393-21.64 2.583-45.36 12.565-35.48 9.832-7.61 2.102-65.58 25.131-2.56 1.812-16.86 4.425-15.92 4.536-15.26 4.635-3.79 2.003-41.62 22.096-21.2 11.254-2.71 1.442-39.01 26.642-2.09 1.432-13.07 8.931-2.39 1.631-26.78 24.85-7.57 6.628-5.07 4.236-2.58 2.172-2.21 1.622-1.56 1.642-.93 1.121-.47.461-.61.31-1.03 1.202.12 1.031-8.87 11.534-3.26 3.494-1.47 1.232-.01 1.441v1.512l-1.38 1.792-2.98 3.975-1.23.541-.03.03-.03.04.16.971-2.19 3.975-3.21 3.915-2.44 4.145-2.31 4.525-.27.481-1.18 2.703-.69 1.522-.94 1.822-.24.481-.93 1.702-1.74 3.204-.38.63M723.59 384.912l-7.95-5.486-12.88-8.621-13.57-8.75-14.55-8.881-15.56-8.921-16.9-8.94-18.18-8.841-19.8-8.691-21.24-8.38-22.98-8.019-24.33-7.489-25.98-6.889-26.96-6.137-28.25-5.347-28.59-4.425-29.28-3.524-28.81-2.553-28.84-1.632-27.49-.731-26.91.09-24.82.811-23.81 1.472-21.18 1.952-19.99 2.443-17.09 2.683-15.93 3.004-13.02 3.044-12.05 3.254-9.33 3.153-8.65 3.314-6.23 3.124-5.9 3.284-3.87 3.094-3.85 3.254-.07.23" />
        <path
            d="M908.75-114l-8.61 12.015-7.94 12.665-6.89 12.865-6.03 13.056-5.13 13.266-4.53 13.396-3.89 13.577-3.63 13.626-3.3 13.737-.93 19.283-.98 2.783-4.63 13.256-.21 1.833-2.32 4.435-.9-.22M709.04 113.004l6.29 12.936 5.23 13.116 3.94 13.686 2.71 13.697 1.26 13.987-.06 13.806-1.56 13.837-2.83 13.476-4.24 13.256-5.34 12.786-4.75 9.041" />
        <path
            d="M139.72 609.864l-12.78-6.538-18.2-10.372-17.51-11.064-16.67-11.774-15.7-12.405-14.6-13.016-13.4-13.526-12.06-13.997-10.66-14.347-9.18-14.648-7.64-14.808-6.1-14.908-4.55-14.878-4.3-5.346-3.33-4.145-49.14-61.164 2.51-15.329-36.74-79.385 10.12-14.598 11.32-13.987 12.41-13.296 13.29-12.635 5.44-80.377 19.28-10.102 19.62-9.312 19.77-8.68 19.89-7.96 19.87-7.439 19.88-6.818 19.77-6.418 19.7-5.857.96-1.061 53.73-59.742 22.31-3.214 22.12-3.044 21.9-2.643 21.76-2.523 21.55-2.123 21.42-2.032 21.18-1.612 21.03-1.562.06-.02L330.6.068l77.44-32.99 81.03-23.489 77.52-12.695 71.14-3.214 61.64 5.106 2.07.461 49.29 11.023.47.19 39.27 15.99.04.03 11.25 13.216 10.14 13.116 9.71 12.955 8.38 12.736 7.87 12.465 5.28 10.553 1.14 1.591 4.63 8.901.61-1.031-.81-.851.53-.881 3.13-6.949 3.03-18.442-2.99-19.954-10-19.574-.67-1.311-19.13-20.645-.06-.07-.32-.21-27.91-18.573-.99-.65-39.39-16.65-35.27-8.611-15.02-3.665-60.09-6.257-69.2 1.492-21.62-8.09-77.33 13.136-23.4-5.467-80.44 26.042-24.15-2.604-24.53-2.372-24.72-2.423-75.81 44.564-.56.33-65.73 52.553-1.14.912-.21.17-22.54 3.654-22.79 3.905-23.02 4.405-23.3 4.776-41.24 68.893-1.02 1.702-24.43 72.127-.24.721-6.98 72.808 9.72 70.595 25.01 66.821 31.56 51.062 5.9 9.551.74 1.192 15.5 17.611.82 7.719v.09l.38 7.109.05.2.73 3.575 2.12 5.807.44.72 1.41 3.755 1.76 5.206.09.251 2.9 8.56 3.2 7.038 2.29 8.36 1.14 5.717.82 2.874.71 2.533.58 1.051 2.14 2.433 4.25 6.818 2.98 6.708 3.52 6.899 3.14 5.577.66 1.301 3.23 6.418 2.09 3.724.81 1.282.19.811.85 2.022.93 1.863 1.27 1.351 2.64 3.584 2.71 4.196 3.42 4.385 3.2 4.095 2.99 3.834.86 1.112.81 1.131zm0 0l.32.441.73.53.89.811 1.01 1.522.22.741.03.441 5.43 6.968 2.54 4.195.14.27 3.72 5.137 13.08 13.256 8.03 8.78 2.25 2.073 2.32 2.683 21.14 19.934 3.3 2.113 4.54 4.375 4.41 5.897.19.26 5.66 5.407 6.42 5.076 6.51 4.796 5.28 4.135 3.47 3.013 1.67 1.362M749.82 403.505l-14.14.891-27.45 3.985-40.21 8.65-50.12 14.298-.5.14-55.77 20.194-.99.361-.79.29-57.67 26.031-1.47.661-.66.29-11.76 6.588-43.76 24.54-1.2.671-.85.47-47.34 33.281-1.63 1.141-2.21 1.552-12.43 11.193-27.62 24.89-2.14 1.923-24.61 30.907-.36 1.492-6.73 5.867-6.54 6.087-6.2 6.188-1.69 4.245-9.12 22.868.04 2.052.23 1.071-2.67 3.394M1266.82 645.697l-8.32-11.373-30.62-7.299-51.19-2.023-68.13 3.925-79.86 9.952-85.56 15.389-85.41 19.744-80.24 22.717-51.14 17.351M1187.47-114l-4.06 13.336-1.3 2.163-16.34 26.972-27.1 44.744-1.55 1.672-18.29 19.584-35.41 37.916-2.01 1.532-2.65 2.002-14.56 11.063-41.19 31.268-2.03 1.122-3.05 1.681-12.55 6.929-44.19 24.399-2.24.891-3.34.681-2.24.231-16.36 6.447-40.66 16.821-45.95 13.526-2.53.701M943.26-114l6.47 12.285 7.28 36.013-2.86 33.49-10.8 30.057-16.19 25.38-.44.692-20.6 21.906-22.87 17.731-7.13-1.652-16.88 9.812" />
        <path
            d="M785.83 194.543l8.65-10.683-.36-12.155-10.99-12.715-24.19-11.424-38.38-8.51-53.16-2.864-10.7-12.655-71.91 6.478-16.72-10.303-16.7-9.201-89.63 21.796-90.26 34.432-84.96 45.635-70.87 53.905-.92.701-53.42 57.98-1.45 1.572-.75.821-3.64 6.368-30.59 53.484-1.53 2.683-2.87 10.213-14.24 50.741-.3 1.061.37 58.751 14.35 54.496 15.11 28.485 1.79 3.384 6.14 13.786-.25 1.622 3.43 5.817 1.44 2.924 2.08 3.664.63.951 16.8 18.393" />
        <path
            d="M773.06 202.642l2.15-1.932 2.23-2.343 5.64-4.746 2.43-10.752-7.89-11.314-19.69-10.763-33.43-8.05-47.55-3.614-9.55-12.936-66.72 4.666-15.89-10.843-81.82 16.78-85.5 28.454-83.62 39.418-73.02 48.158-1.11.731-58.07 53.114-1.79 1.632-.96.881-41.02 56.338-1.33 1.822-.72.982-25.18 58.821-.47 1.101-8.04 57.86 6.45 54.476 18.88 49.579 26.65 42.922 1.1 1.762 26.48 30.427" />
        <path
            d="M90.96 520.646l-7.23-11.383-6.56-12.025-7.09-7.679-3.53-3.825-3.03-3.284-40.78-44.193-1.26-12.625-.13-12.205.8-11.794 1.74-11.294 2.44-10.843 3.2-10.312 3.68-9.872 4.25-9.322-8.61-66.9 8.46-8.791 8.57-8.4.08-.381 10.24-45.475 4.85-21.576.36-.761.23-.48 24.84-52.403 5.9-12.465.2-.271.95-1.251 44.14-58.851 1.41-1.893.61-.57.31-.29 1.7-1.593 57.45-53.965.15-.11 1.34-.921 69.08-47.337.68-.34 77.02-38.768 80.78-28.734L478.21-114M703.59 362.796l-3.72-3.965-9.77-9.942-10.73-10.152-20.29 5.516-30.33 8.931-39.24 13.527-46.39 18.962-49.31 24.28-.93.45-49.79 29.676-1.04.611-46.56 34.251-.83.611-40.42 37.485-.82.751-31.94 39.147-.61.761-22.73 39.348-.49.861-13.25 38.036-.34.971-4.96 35.923-.15 1.082-3.53 7.168 2.39 14.808-.78 1.792-.68 1.592-.6 1.622-.09.461-.1.16M1236.47 672.83l-6.84-5.386-3.37-2.654-30.6-4.255-49.05.421-63.94 5.537-74.03 10.542-78.79 14.938-12.67-3.894-79.2 19.203-14.15-2.884-32.27 9.682" />
        <path
            d="M1261.15 653.607l-4.35-11.334-25-7.178-1.41-.401-47.07-2.613-64.45 3.104-76.93 8.971-83.62 14.357-84.49 18.753-80.29 21.846-46.01 14.968M138.05 607.621l-11.11-4.295-7.97-3.904-19.18-9.402-10.4-5.086-70.86-34.692-6.11-3.814-16.15-10.073-8.78-5.476-74.88-46.707-4.35-3.534-6.33-5.146-30.86-25.111-20.07-16.329M1200.01 692.944l-9.85 6.578-10.74-4.875-29.19-1.542-45.65 2.433-58.77 6.678-67.64 10.703-7.57-4.326-27.01 5.487" />
        <path
            d="M367.93 714.08l6.59-9.572 13.81-2.693.38-.34.69-.611 37.49-33.04 17.29-2.523.61-.38 1.1-.681 1.59-.981 54.28-33.581 20.79-2.022 21.36-1.733.87-.38 1.66-.731 2.29-.991 74.38-32.529 1.19-.411 92.1-31.878 25.79.29L846 532.911l26.03 2.083 25.61 2.543 25.06 3.013 24.4 3.435 23.63 3.874 22.77 4.255 21.82 4.646 20.81 4.986 19.71 5.316 18.56 5.607 17.36 5.887 16.12 6.118 14.83 6.337 13.51 6.518 12.17 6.698 10.82 6.819 9.44 6.928 8.04 7.028 6.63 7.079 5.22 7.119 3.8 7.128 2.36 7.119.96 7.088-.47 7.029-1.88 6.948-3.26 6.848-4.65 6.719-5.98 6.567-7.3 6.388-25.25-1.752-41.83 1.992-55.44 6.038-3.79-5.096-5.04-5.107-6.24-5.086-7.45-5.056-8.63-5.006-9.81-4.926-10.94-4.826-12.06-4.705-13.14-4.576-14.18-4.415-15.18-4.245-16.15-4.045-17.04-3.835-17.92-3.614-18.72-3.364-19.47-3.094-20.16-2.833-20.79-2.533-21.33-2.243-21.81-1.922-22.21-1.602-22.54-1.272-22.76-.931-22.92-.601-22.97-.25-22.94.08-22.8.441-22.58.76-22.26 1.102-21.86 1.411-59.65 33.06-1.68.932-1.17.65-.63.351-18.62 2.072-17.98 2.313-40.93 33.651-.39.32-14.53 2.543-9.36 12.265M613.86-114l10.17 5.417 19.53 10.272 18.93 10.353 18.87 10.302 18.01 10.443 17.79 10.412 16.68 10.553 2.76.89L779.01-31.6l.74.411 32.15 18.002 3.05 2.813 19.03 17.581 1.26 2.263 9.04 16.27 1.3 2.333 2.92 13.606M245.01 714.08l-8.65-7.609-3.84-6.879-1.87-2.262-2.04-2.483-2.72-3.294-23.5-28.475-24.57-41.33-16.84-45.735-6.05-50.13 6.64-53.245.48-1.221 21.5-54.055.74-1.082 36.57-53.815 1.06-1.041 51.92-51.232 65.1-46.806 74.05-39.017 76.58-29.676 74.27-19.574 66.32-10.302 13.04 12.895 49.08-1.331 36.19 4.045 23.42 7.088 11.44 8.681 1.5 8.57-7.14 6.328M867.13-114l-3.36 10.923-3.37 14.398-2.62 14.377-1.8 14.447-1.36 14.428-.84 14.487-.79 14.418-.58 14.427-.89 14.247.53 19.364" />
        <path
            d="M1208.58 686.166l-8.57 6.778-14.61-4.865-33.15-1.272-49.41 2.944-62.07 7.359-70.17 11.483-8.65-4.265-46.45 9.752M764.55 410.383l-10.83-.51-24.85 2.322-38.37 6.719-50.05 12.475-56.16 18.292-1.39.45-.58.19-57.67 23.739-2.09.861-1.13.461-.86.36-24.42 12.545-33.62 17.271-1.6.831-.72.371-4.83 3.103-45.45 29.256-2.23 1.431-1.33.861-.92.591-16.7 13.687-26.67 21.866-2.52 2.073-27.68 30.947-.69 1.612-7.26 4.886-2.41 1.772-1.7 2.062-3.07 2.383-2.32 1.742-3.56 4.866-5.49 11.304-8.17 16.84-.3.621-1.23 2.984-3.48 6.708M796.76-114l3.29 10.232 32.39 20.745.57.37 22.97 22.798 13.64 23.118 5.73 22.437-1.04 20.876-6.29 18.812-9.49 14.948-.86 1.372-7.3 7.63M85.3 503.936l-8.13-6.698-5.34-11.764-4.27-11.484-3.17-11.103-2.3-10.743-1.36-10.293-.69-9.902.07-9.411.55-9.011-23.2-63.537 4.55-8.91 4.96-8.381-1.09-66.8 8.81-7.88.22-.761.1-.37 11.68-41.6 6.82-24.29 12.55-6.958.55-.921 27.97-46.556 9.97-16.6 16-5.607 15.84-5.427.07-.07 1.29-1.231 47.54-45.025 10.4-9.852 18.8-3.714 18.64-3.264 1.01-.6 3.08-1.833 61.02-36.354 9.75-5.807L348.73.088l1.39-.54 77.25-30.368 2.93-1.14 21.76 1.44 81.64-18.552 75.97-7.699 67.65 1.402 18.53 8.75.14.04 17.96 8.64 16.77 8.942 16.22 8.81 14.71 9.041 14.06 8.84 12.42 9.052 11.72 8.79 9.99 9.011 9.25 8.72 7.48 8.962 6.72 8.7 4.94 8.991.04.06 4.13 8.71 2.4 9.102 1.64 8.95-.1 9.312-.87 9.241-2.54 9.581-3.3 9.542-4.92 9.862-5.65 9.792-7.2 10.022-7.93 9.922-9.38 10.012-10.07 9.832-11.4 9.761-5.12 5.317-5.49 3.604-1.42.551-5.19 3.634M116.95 576.474l-9.46-4.636-10.62-6.548-7.19-4.435-7.81-4.806-63.07-38.877-3.31-2.603-17.29-13.636-62.2-49.04-2.35-2.473-3.79-3.964-4.54-4.756-62.85-65.88-1.65-2.463-9.82-14.697M1057.54-114l.74 10.272-11.74 52.874-21.34 41.8-2.16 4.226-31.46 38.727-36.32 31.478-38.62 24.67-38.9 18.422-13.13 4.525" />
        <path
            d="M1228.08 680.059l-6.35-7.99-26.54-4.505-45.08-.09-60.43 4.805-71.23 9.682-76.9 14.037-11.7-4.025-78.46 18.332-13.41-3.023-23.58 6.798M1279.41 575.463l-4.38-8.781-5.71-8.771-7.16-8.67-5.39-1.512-34.54-9.692-2.49-.7-66.24-4.766-85.26 3.444-97.51 11.844-102.01 19.434-24.6-2.443-98.82 26.712-88.95 30.567-73.38 31.488-1.34.581-.69.29-20.73.731-20.46 1.021-20.11 1.292-51.02 32.569-.87.551-.45.28-16.95 1.792-23.17 21.356M79.59 360.863l-1.51-9.471 1.89-5.146.17-1.212 1.16-3.534 3.02-8.54 1.8-3.825.3-.991 1.57-4.896.74-2.413.07-.19 1.44-3.665.02-.05.65-2.893.4-1.542.05-.18.24-.771.94-1.812 1.08-1.482.19-.651 1.03-2.623.93-2.113 9.38-28.834 5.96-17.381.26-.771 6.97-10.763 6.63-10.223 29.66-45.805 1.1-1.131 13.09-13.387 22.53-23.037 23.74-24.27.17-.17 10.87-3.464 1.51-1.021 24.06-16.27 41.4-27.994 11.37-7.689.1-.07 13.71-2.083 13.05-1.982 13.41-1.312 8.38-3.314 30.8-12.174 55.13-21.787 95-23.258 88.68-10.322 77.33 1.812 3.87.66 39.28 6.699 19.88 3.384 1.18.45 31.84 12.005 13.73 5.186 4.48 3.014 14.32 9.652 12.79 8.61 2.19 2.233 3.61 3.274 3.52 3.944 1.94 1.833 1.35 1.852.48 1.101.09.19.54 1.482.04.1.74 1.773 1.43 3.864.4.851.39.54M727.86 387.866l-8.82 1.532-20.98 3.885-32.93 7.669-43.72 12.745-50.96 18.393-.62.23-53.89 23.879-1.11.49-.83.361-43.16 23.518-12.37 6.728-49.42 33.351-1.95 1.321-40.45 34.562-1.41 1.211-1.25 1.072-.66.56-4.17 4.676-27.07 30.337-1.46 1.642-1.74 1.942-10.73 16.89-11.8 18.573-1.69 2.653-5.98 6.448-7.92 27.193.33.54-.14.351M761-114l4.42 7.169 9.21 14.697 9.51 14.568 9.19 14.437 9.24 14.348 8.57 14.207 8.39 14.117.64.72L837.95-.011l1.89 4.065 7.67 16.53.99 14.577.51 5.026" />
        <path
            d="M779.07 417.111l-7.78-1.792-22.18.691-36.65 4.906-49.29 10.533-56.94 16.61-.97.29-.81.23-59.53 22.337-1.6.601-1.63.611-.67.25-38.06 17.982-24.13 11.404-.96.45-9.92 5.877-43.57 25.811-4.61 2.734-21 15.789-25.9 19.473-2.7 2.023-30.46 29.906-7.83 6.748-2.73 1.962-2.24 2.423-1.63 1.752M691.02 296.466l-7.74 1.692-16.85 3.264-26.42 6.167-35.81 10.192-43.7 15.379-49.54 21.256-51.83 27.293-29.56.06-29.68.821-30.08 1.702-29.6 2.483-29.42 3.404-28.21 4.115-27.43 4.956-25.54 5.506-24.24 6.158-21.82 6.448-20.18 6.898-17.47 6.878-15.72 7.109-12.95 6.808-11.29 6.848-8.65 6.318-7.24 6.248-4.85 5.556-3.77 5.437-1.7 4.666-.94 4.545.05.2 3.29 10.102 3.17 8.961M297.16 665.221l5.84-4.566 6.8-4.595 7.63-4.576 8.69-4.575 9.56-4.536 10.68-4.515 11.62-4.415 12.76-4.356 13.73-4.235 14.87-4.105 15.84-3.944 16.94-3.765 17.89-3.544 18.91-3.324 19.79-3.064 1.14-.531 2.02-.931 2.84-1.321 73.56-34.092 23.33-2.212 8-2.764 88.34-30.556 25.9-.841 1.94-.481 104.73-26.122 26.8 1.002 26.72 1.531 26.45 2.063 26.09 2.593 25.56 3.104 24.94 3.594 24.18 4.075 23.32 4.516 22.35 4.956 21.32 5.326 20.19 5.697 19 6.017 17.75 6.338 16.47 6.578 15.14 6.838 13.79 7.028 12.41 7.209 11.03 7.339 9.6 7.469 8.2 7.549 6.78 7.629 5.36 7.65 3.92 7.669 2.51 7.669 1.09 7.629-.33 7.569-1.74 7.5-3.15 7.398-4.53 7.279-5.9 7.129-7.25 6.968-18.53-4.806-37.14-.941-53.14 3.515-4.39-5.837-5.7-5.818-7.01-5.786-8.29-5.727-9.57-5.647-10.82-5.547-12.05-5.416-13.24-5.277-14.39-5.106-15.51-4.916-16.59-4.706-17.62-4.485-18.6-4.225-19.53-3.955-20.4-3.664-21.19-3.364-21.92-3.034-22.58-2.693-23.14-2.343-23.62-1.993-24.01-1.601-24.3-1.232-24.48-.831-24.58-.45-24.54-.051-24.42.341-24.17.721-23.83 1.101-23.38 1.472-22.83 1.812-22.21 2.163-21.46 2.483-20.69 2.783-60.59 35.983-1.49.892-.81.48-16.9 3.274-42.77 35.663-.53.451-13.18 3.394-1.3 1.702-22.21 29.135" />
        <path
            d="M752.91 215.318l1.69-7.179-7.74-7.379-18.45-6.528-30.63-3.814-43.04.4-54.56 6.788-17.68-11.634-69.07 17.061-73.57 26.362-72.08 35.623-64.74 42.641-1.4.921-53.72 48.449-1.07.971-40.59 51.783-.89 1.131-25.44 52.583-.56 1.162-11.74 52.734 1.74 49.79 12.41 46.205 21.07 41.691 21.6 29.996 5.32 7.389 20.26 21.616" />
        <path
            d="M744.6 219.853l-3.83-6.227-13.92-5.557-25.07-3.735-36.98.02-48.52 5.247-16.1-11.995-64 14.458-69.25 23.348-70.34 32.159-65.57 40.188-55.81 45.485-1.27 1.032-44.33 50.48-30.03 51.072-.7 1.202-16.13 51.672-3.3 49.68 8.22 46.176 16.98 42.351 22.59 36.084 1.14 1.802 21.53 26.021 2.7 3.264" />
        <path
            d="M689.53 321.826l-6.35 2.503-15.58 4.105-25.42 6.879-34.76 10.893-42.96 15.919-48.44 21.616-49.87 26.832-1.12.611-48.6 32.049-.93.621-44.08 36.143-.94.771-36.66 38.827-.71.751-27.85 39.968-.61.871-18.18 39.508-.42.911-9.24 38.016-.24.981-1.15 36.484-2.96 7.379-2.08 7.339 3.18 8.801M-149 210.482l4.67-4.916 15.38-14.027 16.54-13.266 17.51-12.455 18.27-11.664 18.88-10.833.34-1.102 25.38-80.447 46.82-79.726.61-.67.82-.912L82.1-92.554 109.97-114" />
        <path
            d="M708.98 368.553l-6.22 2.252-16.99 4.115-28.22 7.309-38.49 11.785-46.92 17.25-51.2 22.768-.75.33L469 461.986l-1.25.68-.89.481-48.32 32.079-1.42.941-.73.48-42.6 35.393-1.13.941-.76.631-34.16 36.865-1.07 1.161-.61.661-24.94 36.894-.87 1.302-.53.791-4.69 10.693-10.74 24.499-.66 1.502-.48 1.102-5.25 6.808-2.63 21.175-.07.611-.89 1.121-1.7 2.724M1099.77 683.934l3.07 5.817 1.74 5.787.46 5.737-.86 5.646-2.08 5.557-.99 1.602M76.66 376.803l1.06-6.598 1.49-6.278.66-1.321-.08-1.182-.2-.561 1.62-4.455 1.16-1.792 1.09-3.124-2.16-9.992.2-6.438 3.77-27.593 3.83-27.994 4.71-5.226 4.84-4.936 4.28-4.716 3.73-4.886 2.33-6.137 3.73-6.778 26.89-48.949 7.36-4.546 10.06-10.863.7-.761 46.96-50.681 10.57-3.905 2.67-1.902 5.22-3.705.78-.56 6.58-4.666 1.87-1.332 58.65-41.66 13.54-2.683 3.88-1.832.65-.31 6.75-3.195 1.86-.88 8.23-3.885 66.78-31.588 15.73-.841 15.65-.1 14.95-.02 14.99.83 14.3.972 14.47 1.942 13.84 2.163 14.16 3.244 13.62 3.554 14.02 4.736 92.29-10.583 11.86 7.309 11.22 7.659 73.67 4.555 7.4 9.522 6.41 10.553 5.61 10.813 4.51 11.724 3.64 11.934 2.4 12.675v.02l1.43 12.736.05 13.276-1.01 13.226-2.47 13.476-3.57 13.246-5.03 13.246-6.09 12.866-7.42 12.645-8.34 12.135-2.4 2.993" />
        <path
            d="M725.01 238.406l-5.23-3.605-14.63-2.783-25.22-.441-36.12 3.184-38.75 7.169-7.54 1.392-54.84 15.038-59.97 22.507-61.66 30.006-57.08 36.034-1.33.841-50.59 41.4-1.26 1.031-40.57 45.014-.92 1.021-29.31 46.657-.73 1.171-17.06 46.396-.42 1.152-6.16 46.005 4.2 43.072 12.24 39.758 18.56 35.833 12.55 17.822" />
        <path
            d="M695.66 346.216l-5.56 2.673-15.46 4.285-25.72 7.179-35.67 11.293-43.8 16.43-49.51 22.157-50.52 27.353-.86.471-47.51 31.358-1.37.911-.94.62-42.3 34.893-1.4 1.151-.74.611-35.07 37.175-1.78 1.882-25.98 37.635-.9 1.312-.54.771-16.91 36.814-.67 1.452-.4.881-.8 3.364-7.75 32.7-.28 1.191-4.27 7.139 1.1 16.339-.72 1.452-1.54 4.055v1.101l-.92 2.964-.25.921M88.29 512.747l-4.56-3.484-.73-.721-1.46-1.432-9.79-9.702-4.2-4.165-42.43-42.02-5.79-7.86-42.22-57.309-34.81-71.937-18.78-77.784-.15-82.179 20.71-84.302.51-.991 42.36-82.56.56-.68 64.47-78.505L77.4-114M967.72-114l-4.82 3.074-13.17 9.211-12.35 9.561-11.45 9.952-10.56 10.353-9.61 10.773-8.77 11.153-7.89 11.554-7.22 11.865-6.53 12.204-6.13 12.415-5.72 12.656-5.63 12.715-5.5 12.815" />
        <path
            d="M707.93 259.982l-5.16-1.352-14.22-.2-24.13 2.032-34.17 5.787-43.63 10.733-50.97 16.911-55.77 23.618-56.41 30.367-53.66 36.414-45.73 40.148-1.03.911-37.77 44.154-26.06 44.243-.61 1.041-15.8 44.975-5.12 43.082 3.76 40.499 11.21 37.074 15.4 31.338-.41 1.132-.25 1.191M1073.18-114l.28 5.316-13.68 55.948-.04.09-21.9 41.01-3.93 7.338-34.09 40.5-38.96 32.749-41.17 25.44-41.27 18.903-13.09 4.316-2.04.67" />
        <path
            d="M1197.9-114l-3.67 3.795-10.82 9.541-11.21 8.57-11.61 7.52-11.86 6.597-12.19 5.647-12.35 4.846-12.6 4.055-12.71 3.414-12.92 2.824-13.01 2.393-13.17 2.062-13.24 1.882-13.35 1.813-13.37 1.902-13.39 2.102-13.33 2.453-13.21 2.884-13.01 3.434-12.73 4.055-12.39 4.745-11.96 5.457-11.51 6.198-10.99 6.928-10.51 7.63-10 8.31-9.59 8.89-9.18 9.441-8.95 9.862-9.27 11.674-1.13-.96.31-.642 3.07-3.964 7.04-12.135 4.41-18.452-1.4-20.305-8.32-21.406-16.58-21.466-.2-.26-.24-.19-25.75-20.635-.65-.33-35.38-18.122-.35-.19-.17-.05-46.51-14.829-6.66-6.988M739.7 396.116l-5.06.401-17.43 2.322-30.25 5.797-41.9 10.623-51.24 16.52-54.67 21.937-1.38.55-.63.251-55.89 27.683-1.13.561-.8.39M284.54 714.08l1.56-4.636 6.71-3.884.46-.641 15.05-20.735 9.72-13.376 9.95-4.165 2.1-1.843 27.66-24.299 12.99-11.414 3.01-1.982 38.68-25.431 17.33-11.393 1.49-.761 2.63-1.332 3.36-1.702 3.57-1.822 43.18-21.917 21.25-10.783 9.79-3.874 54.4-21.506 25.65-10.143 12.39-3.744 6.72-2.023 81.11-24.479 8.51-1.852 61.24-13.327 34.07-7.408 25.41-.862 25.63-.38 25.96.15 25.97.681 26.03 1.252 25.81 1.832 25.58 2.413 25.09 3.003 24.58 3.585 23.85 4.145 23.08 4.685 22.09 5.227 21.1 5.686 19.94 6.158 18.75 6.568 17.45 6.948 16.16 7.259 14.75 7.579 13.39 7.8 11.94 8.029 10.54 8.18 9.1 8.33 7.71 8.42 6.27 8.481 4.9 8.51 3.51 8.53 2.15 8.49.82 8.3v.161l-.52 8.39-1.67 8.4-2.95 8.37-3.66 5.967-.11.06-.1.17" />
        <path
            d="M733.84 231.077l-.49-4.806-9.33-4.726-19.82-3.224-31.02-.43-42.24 4.225-52.44 10.202-59.89 17.652-64.15 25.55-63.4 33.371-57.41 39.207-1.43.971-48.56 44.244-1.08.981-37.6 47.237-.92 1.151-24.79 48.108-.59 1.142-12.96 48.538-1.11 46.106 8.5 43.042 16.39 39.107 20.82 33.651 1 1.622 8.24 10.082" />
        <path
            d="M695.64 283.6l-4.26.581-12.94 1.622-22.43 3.945-32.14 7.429-40.91 12.224-48.11 17.912-52.16 24.159-51.79 29.546-1.33.751-48.83 34.902-1.07.761-42.87 38.927-1.03.931-34.16 41.4-.75.901-24.5 42.261-.59 1.031-17.01 8.22-15.95 8.661-14.27 8.76-12.92 9.071-11.01 8.981-9.46 9.131-7.48 8.851-5.89 8.83-3.96 8.361-2.47 8.199-.71 7.58-.13 8.139 2.79 5.767 3.36 6.749 4.11 4.996 12.89 11.734M1195.34-114l-1.11 3.795-1.38 2.322-14.89 25.14-29.11 49.13-2.09 2.283-15.7 17.12-38.45 41.921-2.31 1.792-14.86 11.434-3.66 2.824L1031 75.148l-7.99 3.104-7.64 2.233-7.24 1.442-6.85.6-6.47-.12-6.15-.86-5.84-1.493-5.62-2.122-5.47-2.593-5.42-3.054-5.45-3.334-5.6-3.574-5.83-3.625-6.14-3.594-6.54-3.384-6.97-3.064-7.43-2.583-26.7 19.944-27.61 15.439-4.48 1.852" />
        <path
            d="M255.79 714.08l-2.49-2.713-3.21-4.396-21.89-29.996-20.03-38.696-13.02-42.572-3.39-46.386 7.83-49.039 21.16-50.711.76-1.102 33.64-49.219 1.1-1.102 46.56-46.926 1.24-.931 56.61-42.422 65.21-36.774 67.2-28.855 65.06-20.304 58.15-12.335 14.66 12.515 12.87 12.645 11.2 12.886 9.41 12.815 7.8 12.796 6.22 12.545 4.84 12.355 3.62 11.984 1.4 6.218M961.31-114l1.59 3.074 7.45 38.716-3.47 35.944-11.72 31.578-.22.59-18.17 27.874-22.3 23.339-24.72 18.882-6.5-2.443-22.21 12.856" />
        <path
            d="M689.72 308.38l-2.82 1.762-11.44 2.864-20.97 5.006-30.49 8.46-39.41 13.016-46.22 18.502-50.52 24.419-28.72-.7-50.92 32.949-28.54 2.774-28.67 3.614-27.95 4.305-27.55 5.127-26.2 5.736-25.24 6.468-23.31 6.889-21.87 7.459-19.51 7.629-17.8 7.979-15.2 7.86-13.42 7.99-10.81 7.619-9.14 7.569-6.69 6.978-5.27 6.819-3.11 6.067-1.98 5.867-.15 5.026.65 4.836" />
        <path
            d="M715.57 250.15l-1.13-2.563-9.84-2.043-19.58-.5-30.01 2.603-40.31 6.968-49.16 12.836-55.87 19.553-58.7 26.753-58.03 33.62-51.54 38.517-1.19.881-43.62 42.641-1.09 1.062-33.01 44.944-.76 1.041-21.88 45.465-.56 1.161-10.75 45.435-.63 43.293 8.24 40.038 14.84 36.614 15.45 25.611M861.97 79.113l2.17 1.502 3.9 3.895 3.18 4.345 2.44 4.726 1.84 4.916 1.31 5.016.93 4.956.68 4.825.6 4.546.64 4.215.85 3.775 1.18 3.314 1.63 2.743 2.16 2.203 2.78 1.562 3.45.951 4.14.27 4.85-.38 45.47-18.122 10.04-3.374 9.28-3.364 2.47-1.162 7.28-2.703 15.88-8.38 8.69-4.416 5.47-3.374 18.44-11.063.94-.56.24-.13 11.27-6.709 2.68-1.542 2.29-1.241 6.83-3.985 31.27-25.811 3.32-2.634 14.87-11.023 3.66-2.773 6.48-5.497 3.71-3.124 9.37-7.529 30.78-36.374 15.15-17.46 1.27-1.092 7.24-8.89.58-.712 2.27-2.983 3.5-6.598L1206.8-114" />
        <path
            d="M717.49 378.024l-1.85 1.402-12.9 2.773-24.47 5.527-35.81 9.672-45.27 14.928-51.98 20.855-52.4 25.651-1.45.701-.71.35-29.54 17.711-22.87 13.717-.84.501-45.89 34.281-1.31.981-.68.511-38.25 36.474-1.06 1.011-.69.661-.75.951-26.79 34.241-2.77 3.555-7.38 13.676-11.71 21.736-1.43 2.644-5.54 6.548-5.38 24.549" />
        <path
            d="M700.82 356.719l-.95 2.112-10.68 3.224-21.37 5.567-31.84 9.221-41.32 14.057-48.18 19.624-51.01 25.01-.95.46-50.76 30.317-.79.47-46.91 34.542-.85.621-38.7 36.204-1.23 1.141-.66.621-30.3 37.405-1.55 1.912-20.82 36.835-.75 1.331-.48.851-2.26 6.638-10.22 29.997-.34 1.011-4.68 6.888-.61 18.743-1.08 1.742-1.46 3.324M829.27-114l1.86 1.001 29.27 24.32 18.88 25.28 9.82 25.03 1.99 23.709-4.3 21.716-9.22 19.183-11.71 15.099-1.01 1.311-12.67 11.344M-149 111.642l1.15-.69 22.04-11.684L-103 88.545l23.35-9.802 38.47-87.376 62.3-83.991L44.9-114" />
        <path
            d="M831.15-114l-.02 1.001.67 15.239 1.21 15.108 1.9 15.048L837-52.666l2.46 14.918 2.28 14.768 2.35 14.718 1.8 14.487 1.04 4.486 3.64 15.618M700.58 271.826l-.88-.451-9.08.07-18.4 1.813-28.28 4.695-37.77 9.021-46.19 14.408-51.91 20.685-54.78 27.212-52.19 32.56-1.21.751-47.7 37.525-1.19.931-39.88 41.08-.89.911-31.19 43.973-19.81 43.062-.47 1.031-10.07 43.012-.49 40.599-6.75 8.631-5.3 8.51-4.09 8.57-2.56 8.3-1.3 8.25.18 7.82 1.39 7.669 2.15 7.809 4.44 6.198 4.99 6.247M1088.81-114l-.28.1-15.07 5.216-15.18 4.956-15.13 4.846-15.09 4.866-14.89 4.986-14.66 5.237-14.3 5.576-13.86 6.007-13.34 6.508-12.72 7.059-12.07 7.63-11.34 8.239-10.64 8.81-9.89 9.392-9.26 9.912-8.61 10.423-8.17 10.813-7.7 11.213-7.52 11.434-6.81 10.883-.5.791" />
        <path
            d="M1088.53-114v.1l-12.82 48.609-2.76 10.492-22.57 40.51-5.76 10.342-36.71 42.291-41.6 33.94-43.68 26.253-43.61 19.303-16.68 5.286-.56.181M118.99 581.69l-15.29-8.77-8.34-4.776-64.5-36.975-3.63-2.643-5.53-4.045-6.4-4.666-71.8-52.433-6.91-6.628-5.17-4.956-5.66-5.426-61.44-58.912-1.87-2.503-11.45-15.338M140.69 611.226l-8.03-3.514-.97-.421-1.17-.511-10.64-4.645-68.05-29.125-9.33-4.926-20.55-12.305-7.17-3.985-10.3-5.727-64.26-35.703-6.13-4.405-26.88-19.314-56.21-40.388M91.13 521.147l-9.1-8.27-4.52-4.105-48.72-44.283-.06-.07-3.86-4.716-3.08-3.755-3.06-3.734-42.8-52.253-40.2-71.837-24.62-78.495-6.01-83.811 15.25-87.075 23.73-8.891 23.89-8.08 23.96-7.258 23.88-6.588 23.74-5.888 23.52-5.366.35-.39.96-1.072 57.51-64.127.51-.41 72.64-57.79L241.78-114" />
        <path
            d="M1200.58-114l-10.6 18.472-31.09 54.116-2.36 2.643-13.6 15.148-1.13 1.252-39.89 44.433-3.24 3.054-1.24 1.782-3.31 2.994-15.13 11.324-31.96 23.958-8.18 6.418-2.68 1.542-9.28 5.166-3.61 2.273-9.33 5.657-30.93 18.072-7.78 3.464-5.03 2.072-4.72 1.793-9.61 3.924-36.53 15.619-6.87 2.483-6.02 1.712-.21.05-3.25.891-5.25 1.232-9.77 2.433-37.25 10.202-3.08 1.201-.8.411M93.16 527.625l-8.2-6.848-51.21-42.802-7.94-8.771-3.93-4.345-45.78-50.611-1.22-1.902-39.51-61.885-4.99-7.83-30.59-79.015-12.2-85.343 9.41-89.728.44-1.212 33.12-90.039.63-.94 58.41-87.967L12.53-114" />
        <path
            d="M141.3 612.077l-8.14-3.364-1.01-.421-.59-.24-61.71-25.521-1.43-.771-16.34-9.241-17.16-10.753-16.39-11.524-15.52-12.235-14.46-12.955-13.33-13.597-12.02-14.197-10.62-14.708-9.08-15.168-7.5-15.489-5.8-15.749-4.13-15.869-2.39-15.909-.71-15.799.93-15.639-42.96-79.526 8.73-15.188-18.62-86.675 3.14-92.271 28.12-95.065 28.25-6.909 28.26-5.927 28.13-5.066 27.84-4.255 27.46-3.584 27.03-2.944 26.54-2.473 26.07-1.962 25.59-1.672 25.16-1.272 24.77-1.091 24.39-.751 24.13-.66 23.79-.331 23.64-.29 23.33.06 23.23.09 22.91.47 22.8.5 22.41.942 22.26.961 81.19-20.785 77.07-10.383 69.1-.71 59.5 7.038.49.13 47.39 13.046 22.41 10.563 14.31 6.758.74.57L826.94-6.54l7.04 13.746 5.86 13.447 5.35 12.985.07.18 2.3 10.263 1.47 3.064.82-1.052-.85-.79-.38-.842-.79-2.252 1.04-.3 3.18-10.393 3.35-13.657 3.4-13.656-5.81-20.725-13.53-21.226-.43-.4-21.79-19.894-.57-.511-32.53-19.013-.51-.19-42.02-15.309-.74-.27-53.43-10.913-63.41-4.335-71.29 3.674-22.1-7.96-78.63 15.63-23.81-5.297-23.89-5.407-24.29-5.326-81.85 34.672-25.14-2.223-25.47-2.243-26.01-2.052-26.51-2.003-27.17-1.762-27.84-1.582-28.59-1.221-29.34-.871-30.12-.33-30.86.26-31.52 1.011-32.05 1.862-32.47 2.854-50.75 99.04-21.85 97.327-.33 1.482 3.52 94.614 25.27 87.836-7.19 15.669-5.55 16.089-3.76 16.39-1.95 16.6-.02 16.67 1.85 16.64 3.77 16.46 5.58 16.2 7.39 15.809 9 15.338 10.59 14.758 11.96 14.147 13.26 13.447 14.35 12.745 15.36 11.974 12.65 9.011 2.11 1.512 1.81 1.011 3.52 2.163 13.02 8.01 17.5 9.721 48.24 21.727 8.32 3.874 1.76.861 2.58 1.082 1.58.721.14.07 1.36.64 3.87 1.943 14.11 7.088 18.69 8.511 19.02 7.779 17.06 6.288" />
        <path
            d="M83.16 356.628l1.89-5.767 1.24-4.956 20.25-51.622.37-.501 11.03-15.118 38.66-52.974.98-.891.81-.731 17.58-16.029 37.23-33.931 13.06-11.914 2.65-1.642 33.43-20.866 51.24-31.978 1.44-.631 43.87-19.253 51.59-22.628 100.33-28.113 94.93-14.218 83.82-.87 2.67.35 50.13 6.648 15.53 2.062 1.26.42 40.56 13.447 8.88 2.954 2.58 1.581 22.9 14.097 8.33 5.137.97 1.261L854.7 84.66l5.26 6.828.98 4.776 2.44 6.528 1.85 2.663M124.8 590.641l-.98-.481-.17-.09-64.79-32.359-4.57-2.883-6.69-4.225-40.53-25.621-43.87-27.724-8.67-7.088-6.32-5.157-6.75-5.516-67.79-55.377-2.49-2.743L-149 399.09M1204.02-114l-18.23 32.91-17.09 30.837-3.36 3.855-10.44 11.934-17.29 19.814-26.64 30.517-3.4 2.763-8.9 6.488-10.89 9.181-12.67 12.395-9.2 7.419-9.06 6.578-8.88 5.677-8.63 4.836-8.34 3.944-2.89 1.612-11.99 6.728-48.16 26.983-6.77 1.912-6.21 1.162-5.65.39-5.09-.32-4.57-1.041-4.07-1.672-3.66-2.323-3.31-2.864-3.07-3.394-2.93-3.784-2.94-4.145-3.05-4.346-3.29-4.485-3.67-4.465-4.11-4.336-4.68-4.035-5.24-3.654-5.9-3.074-25.61 14.618-1.68.71M956.18 115.627l-3.47 1.432-40.23 16.6M398.83 568.524l-16.14 10.162-2.15 1.352-9.3 5.166-8.83 5.217-8.35 5.306" />
        <path
            d="M94.92 533.862l-1.78-1.381-53.03-40.86-6.36-13.646-4.96-13.486-.01-.04-3.66-13.226-2.38-12.966-2.78-4.215-40.5-61.504 3.51-13.026 4.45-12.535 5.38-11.985 6.08-11.474 6.8-10.883 7.28-10.392 7.8-9.802 8.09-9.351 7.41-68.503 12.31-8.34 12.48-7.78 12.46-7.469.14-.26.71-1.322 26.72-49.559 7.44-13.807 16.03-6.087.15-.161 1.09-1.211 46.63-51.943 5.23-5.817.7-.57 64.46-51.753.12-.07 1.63-.961 72.13-42.401 78.94-33.691 79.78-23.158 23.38 5.396 55.62-7.689 19.95-2.753 21.61 8.03 20.95 8.24 20.81 8.23 19.93 8.48 19.66 8.47.45.07 20.12 3.254 35.95 5.797 16.28 10.492 14.95 10.593L779.5-14.71l12.92 10.513 12.31 10.272 10.68 10.272 10.03 9.972 8.32 9.932 7.67 9.572 5.91 9.551 4.46 7.1 1.34 2.562 2.93 8.7 2.5 6.188 1 3.414.39 8.15.39 8.641-1.34 8.74-2.02 8.55-3.69 8.681-4.38 8.55-6 8.691-6.66 8.59-8.2 8.681-8.85 8.57-10.28 8.59-10.91 8.431-8.09 5.736-4.67 3.304-1.34.942-3.79 1.972" />
        <path
            d="M76.67 404.296l4.26-22.688 4.66-24.759.64-1.322 6.63-13.837 15.96-33.28 9.85-20.535 1.72-2.062 17.85-21.496 36.2-43.563 1.85-1.512 28.28-23.158 44.54-36.464 4.39-2.483 44.61-25.16 41.96-23.659 98.59-38.756 99.79-24.19 13.57 5.127 13.97 6.367 87.83-7.108 10.86 8.88 10.2 9.252 66.42 6.498 1.62.44 47.75 12.796.88.48 31.18 17.231 16.9 19.083 3.29 18.923-6.08 15.188-.74 1.852M62.14 579.157l-7.71-3.664L8.8 553.616l-20.11-9.571-13.02-8.01-3.52-2.163-2.19-1.461-2.36-1.312-2.57-1.412-9.79-6.828-7.17-5.076-23.72-14.708-66.62-42.862-6.73-6.728" />
        <path
            d="M76.61 395.696l2.88-21.116 1.05-7.759.18-5.617 1.13-4.005.52-2.583.36-2.813.05-.161 1.21-4.025 1.25-3.043 1.37-3.024.03-.09-.31-.521-.3-.6-.19-11.624 1.4-4.926 1.22-2.734-.13-2.793-.61-4.285 5.56-36.745.47-2.673.06-.31 7.44-16.53 8.26-18.332 13.87-30.797.45-1.012.57-.761 15.46-20.915 24.51-33.14 6.44-8.71.07-.09 11.57-4.536.93-.791 27.16-23.508 37.51-32.44.08-.07 14.64-3.334 1.39-.8 39.86-23.139 38.64-22.437.05-.03 17.09-1.562 16.54-1.531.05-.02 4.42-1.532.69-.23 48.7-16.83L466-1.205l87.85-18.702 80.82-6.468 70.27 3.464.65.14 48.56 10.072 7.5 1.552 4.26 1.702 30.14 12.045 8.68 3.474 1.19.861 19.83 14.277 7.78 5.597 8.34 11.194 4.68 6.047" />
        <path
            d="M81.75 354.926l.66-1.822.4-1.091 1.2-3.965 1.23-4.956.76-2.153.82-2.132.15-.471.12-.991.08-.921.29-1.462.18-1.261.95-4.746 4.42-20.064 1.77-7.64 3.39-10.993 9.2-29.816.1-.3.81-1.372 5.01-8.48 8.96-15.168 24.54-41.511.18-.31 7.66-4.215 7.01-4.065 6.51-6.197.62-.591 4.75-4.526 52.61-50.08 10.21-3.344 3.28-2.083 25.51-16.109 53.15-33.59 2.02-.912.47-.21 5.42-2.433 1.6-.71 7.31-3.285 73.35-32.9 5.22-1.531 46.67-13.637L501.21.94l88.7-14.428 79.45-2.132 66.92 7.359.91.27 38.64 11.174 12.3 3.564 4.67 2.453 20.26 10.623 12.38 6.498 1.74 1.701 11.33 11.124 9.97 8.71 1.18.17.18.15.13.351.08.17.14.19.18.451.68 1.742-.33.841.79 2.674.74.57.62 1.813 1.05 1.842" />
        <path
            d="M73.98 418.543l1.88-4.726 6.56-25 7.9-35.663.38-.691 12.04-22.337 24.58-45.565 1.56-1.782L149.64 259l35.28-40.408 2.11-1.612 38.43-29.406 37.36-28.594 1-.541 51.82-28.104 38.57-20.915 99.56-36.404 14.94 3.925 16.07 5.086 94.77-18.332 85.13-5.056 70.21 5.196 1.07.27 51.85 13.046 1.59.78 34.19 16.921 19.34 20.024 5.99 19.774-5.03 16.33-.36 1.171-.25.801-7.47 8.14-7.22 7.019-1.62.5-6.14 6.198" />
        <path
            d="M74.56 410.774l.22-1.632.5-6.027-.14-1.552.47-7.62.55-9.04-4.81-16.23 2.35-6.077-.23-65.81 5.4-6.047.54-1.842 5.95-20.045 13.27-44.764 8.64-5.747.55-.881 2.47-3.954 13.55-21.747 23.56-37.805 11.95-5.057.71-.7 28.92-28.715 29.38-29.165 15.1-3.885 14.67-3.815 2.43-1.501 42.38-26.092 32.48-20.014 17.29-2.133 3.62-1.471 53.72-21.787 28.57-11.584 86.29-23.098h.12l81.39-11.073 73.06-.861.48.06 60.76 7.94 3.6 1.05 44.01 12.896 1.17.34.88.472L812.6 2.89l2.08 1.112 4.64 4.195 13.15 11.894 5.39 4.876 6.48 12.205 3.49 5.036.79.34" />
        <path
            d="M78.41 477.474l-.26-4.906-.34-2.563-.87-6.367-.27-2.033-1.19-8.771-.58-4.305-.49-4.765-1.68-19.073-10.94-19.674 1.41-8.12-16.23-64.198 5.08-8.009 2.64-66.671 8.79-7.549.07-.2 13.76-40.489 8.75-25.741 12.43-6.698.08-.13.85-1.272 29.18-43.683 11.95-17.901.61-.621 47.18-48.529 8.39-8.64.12-.09 1.51-1.121.13-.09 65.87-48.88.88-.48 74.68-40.74 79.38-30.907 79.49-20.635 22.86 5.657 22.8 5.647 22.14 5.967 21.97 5.977 21.11 6.358 20.8 6.338 19.73 6.748 19.28 6.688 18.02 7.099 17.44 6.988 16.02 7.399 15.32 7.249 13.79 7.679 13.02 7.489 11.4 7.97 10.59 7.779 8.95 8.31 8.11 8.17 6.45 8.74 5.61 8.66 3.98 9.272 3.15 9.261 1.53 9.882.73 9.902-.86 10.483-1.67 10.503-3.22 10.993-4.02 10.983-5.54 11.304-6.35 11.223-7.81 11.364-8.61 11.163-9.97 11.114-10.71 10.783-6.99 7.579-4.98 3.214-.79.511-.42.27" />
        <path
            d="M78.02 470.246l-.8-15.069-1.84-34.631.48-6.729.23-9.801.02-9.202-6.92-19.643-6.49-65.189.01-.06 4.34-29.796 5.36-36.724 8.78-6.809.59-1.301 15.51-34.121 13.66-30.077 12.25-6.047 1.03-1.292 30.28-37.785 17.66-22.027 15.55-4.866 1.57-1.291 3.02-2.453 43.94-35.803 16.88-13.757 18.41-3.204 2.31-1.261 62.76-34.542L348.73.088l20.52-1.052 20.16-.54 19.82-.51 85.2-25.041 20.48 1.992h.12l19.62 2.593 19.2 2.564 18.37 3.233 17.69 3.184 16.8 3.935 16.02 3.905 15.1 4.726 14.27 4.745L665.45 9.5l12.51 5.737 11.6 6.758 10.78 6.899 1.63 1.311 8.25 6.658 2.23.39 54.56 9.622 6.2 1.102 5.87 9.36.03.02 5.02 9.462 3.68 10.333 2.86 10.473 1.48 11.233.63 11.354-.79 11.974-1.68 12.005-3.13 12.445-4.05 12.355-5.51 12.565-6.45 12.335-7.84 12.305-8.73 11.944-10 11.714-7.78 8.12" />
        <path
            d="M97.02 540.32l-1.36-.971-47.8-34.021-7.75-13.707-5.28-5.316-4.01-4.015-4.12-4.145-49.06-49.33-1.54-14.567-.17-14.287 1.18-13.907 2.35-13.516L-50 300.681l8.64-12.866 9.52-12.235 10.17-11.654 10.83-11.003L.41 242.47l11.7-9.811 11.93-9.342 12.22-8.73.29-.851 20.5-58.771 3.02-8.641 16.19-7.138 16.12-6.829 16.14-6.307.54-.661.25-.3 45.42-55.357 3.69-4.496 19.23-4.405 19.08-4.265 18.96-3.815 3.41-2.352 64.03-44.224 2.65-1.822.09-.05 2.03-1.021 74.93-37.646 80.07-28.514 78.75-17.842 74.32-8.07 66.52.831 51.05 7.13 6.35.88 15.5 12.135 15.34 12.084 14.31 12.105 13.97 12.024 12.69 12.005 12.22 11.844 10.76 11.755 10.21 11.493 8.64 11.314 7.25 9.612 1.09 1.582 6.17 10.502 1.31.57 8.32-7.368 9.86-8.03 10.04-7.439 10.33-6.728 10.59-5.977 10.89-5.166 11.13-4.335L931.86.528l11.49-2.683 11.59-1.942 11.59-1.222 11.56-.64 11.46-.13 11.32.22 11.17.48 11 .56 10.87.531 10.71.35 10.63.061 10.52-.39 10.5-.912 10.43-1.572 10.46-2.272 10.41-3.104 10.42-3.945 10.36-4.886 10.32-5.817 10.18-6.828 10.04-7.8 9.81-8.84 9.24-9.281 2.19-2.483 7.25-8.901 8.73-11.794 8.2-12.796 7.61-13.696 2.28-4.796" />
        <path
            d="M101.57 548.36l-.35-.24-1.23-.811-4.47-2.944-38.47-25.341-11.88-10.012-5.3-4.465-54.65-46.086-1.94-2.172-3.09-3.474-3.69-4.145-53.53-60.103-49.22-79.496-22.75-62.846M128.44 595.306l-2.86-1.341-.1-.04-.17-.08-50.75-23.729-5.32-3.144-7.03-4.155L24.5 540.56l-37.23-21.986-12.05-7.119-16.42-12.465-7.55-5.737-70.19-53.324-2.99-3.024-27.07-27.433M1101.98-114l-12.07 42.792-3.95 14.017-.23.4-22.58 39.187-7.9 13.717-39.33 44.043-44.19 35.183-46.17 26.982-45.9 19.734-16.97 5.176-2.38.721M779.12 57.347l41.98 17.631.23.09.86.731L846 95.783l.34.27 10.65 21.366-1.3 19.154-1.26 3.394-2.76 3.394-1.86 2.353-.12.42-1.82 2.313-2.19 2.042-1.49 1.853-1.42 2.272M141.85 612.848l-4.3-1.692-49.4-19.384-14.11-7.088-1.18-.551-.75-.38-.6-.291-2.74-1.301-1.24-.571-.83-.481-14.87-8.099-9.33-4.926-11.17-4.726-59.18-29.486-1.81-1.011-2.74-1.762-5.67-3.484-4.94-2.373-8.26-4.435-44.94-24.991-16.22-11.133-14.33-10.913-1.49-1.202-1.76-1.582-6.99-5.516-11.73-9.412-.27-.22" />
        <path
            d="M113.06 568.755l-.43-.861-1.44-3.995-5.21-12.646-3.11-6.768-6.92-15.078-3.55-19.624-7.2-39.758 2.18-25.561 3.23-37.875.33-.881 13.29-34.342 11.94-30.857 1.51-2.163 25.35-36.394 18.69-26.842 2.06-1.902 45.76-42.331 18.65-17.251 4.73-3.084 59.61-38.947 17.86-11.674 93.86-42.562 96.47-29.706 16.86 6.829 89.15-14.127 77.84-2.053 62.34 6.899 1.03.31 44.21 13.346 1.32.781 27.59 16.2 13.65 18.442 1.55 17.651-.9 1.602-7.71 13.857M351.38 595.006l-3.56 3.204-2.29 2.743-18.62 22.307-13.45 17.091-1.8 2.163" />
        <path
            d="M177.63 654.108l-4.05-5.237-26.97-34.802-.5-.941-2.41-2.323-4.29-5.226-6.39-10.833-4.47-7.569-9.21-15.629-5.01-14.788-13.29-39.287-3.75-59.252 8.43-41.09 4.39-21.415.46-.912 25.23-49.299 7.09-13.847.69-.831 1.21-1.452 41.98-50.38 7.97-9.572 2.48-2.002 66.63-53.755 1.73-1.402 84.01-48.589 92.45-37.145 92.17-24.629 17.16 8.61 81.46-10.102 12.37 11.364 11.5 11.764 58.63 2.403 43.56 8.35 28.29 12.345 14.75 13.706 2.62 13.687-6.53 12.175-12.63 8.87-1.47 1.112" />
        <path
            d="M86.03 340.359l1.06-3.014 11.28-36.244.22-1.892 3.37-8.56 13.71-29.015 8.19-17.341 3.86-3.465 8.91-10.552.48-.571 1.28-1.522 45.4-53.725 1.47-1.201.36-.291 14.07-11.463 28.03-22.808 29.42-23.959.02-.02 10.9-2.162 1.75-.952.87-.47 26.75-14.508 60.08-32.579 13.35-.39 2.1-.731 41.31-14.378 54.07-18.813 96.14-19.423 87.62-6.488 74.36 5.307 3.56.82 36.81 8.5 18.25 4.206 1.32.63 27.8 13.107 12.37 5.837 3.66 3.143 11.47 9.842 11.44 9.822 2.44 3.464 2.45 3.915 2.65 4.205 1.15 1.842" />
        <path
            d="M231.73 703.227l-3-2.954-22.94-22.617-1.52-1.962-2.41-3.104-27.22-35.062-24.52-44.935-14.65-50.03-2.52-54.075 12.95-57.35.55-1.101 28.71-57.259.84-1.011 46.27-56.168 1.01-.871 61.26-51.983 1.27-.781 73.88-44.934 81.49-36.254 82.66-25.301 76.84-14.617 15.34 11.784 14.14 12.175 55.15-2.103 41.9 3.725 28.25 7.829 15.71 9.622 4.37 10.092-4.49 9.111M105.84 555.939l-.54-.34-7.24-4.416-2.69-1.642-27.73-16.94-3.1-2.403-16.2-12.565-57.02-44.264-5.73-5.847-4.3-4.385-4.68-4.776-52.93-53.995-1.53-2.183-53.95-77.023-17.2-39.377M131.86 599.692l-4.58-2.003-.34-.15-35.71-15.649-5.86-3.244-26.01-14.397-70.81-39.197-4.59-3.254-21.49-15.229-72.41-51.302-3.27-3.063-5.09-4.776-30.7-28.775" />
        <path
            d="M845.07 435.043l-3.68.18-25.09.18-17.59 1.562-40.37 3.605-1.8.16-22.82 4.175-44.04 8.07-5.37.981-20.95 2.162-26.68 7.81-45.67 13.356-4.59 1.342-18.68 3.544-18.32 3.704-18.11 3.825-17.91 4.005-17.79 4.145-17.74 4.365-17.66 4.546-17.73 4.805-17.64 5.036-17.74 5.367-17.58 5.617-17.62 6.027-17.28 6.298-17.17 6.748-16.58 7.038-16.22 7.489-15.34 7.73-14.66 8.17-13.47 8.34-12.49 8.69-11 8.731-9.78 8.97-8.09 8.851-6.71 8.951-4.94 8.66-3.52 8.631-1.8 8.17-.46 7.999 1.11 7.419 2.29 7.159" />
        <path
            d="M268.5 714.08l.86-4.435-.25-.841.39-.731-.82-1.432-13.32-34.201-7.16-37.726 7.81-8.45 5.17-40.839.36-1.032 14.23-41.51 18.33-7.979.62-.891 28.64-41.21.88-.921 37.93-39.758.94-.771 45.1-36.695 28.68-2.112 28.14-1.362 27.85-.781 27.06-.17 26.54.29 25.66.741 25.05 1.062 24.22 1.371 23.65 1.562 22.96 1.772 22.48 1.882 21.96 2.003 21.63 2.062 21.27 2.153 21.06 2.183 20.85 2.272 20.75 2.293 20.64 2.403 6.41.761 14.21 1.692 5.43.681 7.16.901 9.86.591 15.19 1.071 6.76.481 5.47.43 1.07.03 4.54.16 23.18 1.042 23.19 2.412 24.07 2.584.25.02 23.71 2.102 1.79.2 12.15 1.092 13.91 1.572 18.79 2.923 4.55.741 17.9 2.954 4.56.59 11.92 1.342 11.74 3.204 14.41 3.915 6.83 1.832 13.1 3.504 8.46 2.633 6.32 1.762 5.04 1.572 9.83 3.194 8.97 3.324 6.43 2.303 8.83 4.355 5.92 2.473 1.47.791 6.88 3.765 3.52 1.992.35.2 1.17.571 1.81 1.071 6.71 3.715 12.34 7.899 10.85 8.19 9.47 8.41 7.96 8.621 6.6 8.74 5.13 8.861 3.81 8.911 1.58 8.971 1.89 8.089.26.751 1.69 8.771.36 8.74-.86 8.641-2.14 8.57-3.33 8.44-2.65 2.794-1.9 5.516-2.04 2.183-3.33 5.226-.18.331-.21.44-.15.2-.85 1.572-5.67 7.91-6.93 7.759-8.16 7.569-9.4 7.369-7.78 4.776-2.85 2.373-7.5 4.055-4.33 2.873-6.16 3.154-.59.371-12.17 6.578-13.36 6.307-14.78 5.597-5.19 1.692M74.9 448.529l-.84-5.286-2.2-11.414.01-.02.33-3.714.34-2.513.11-.911.1-.631.76-6.438.71-7.579-9.19-20.765 1.94-7.269-9.58-64.808 5.31-7.199 5.48-6.738 5.22-26.742 7.79-39.909 8.86-6.357.33-.661.82-1.602 15.07-29.636 16.93-33.29 12.26-5.617.4-.46 1.7-1.963 28.36-32.759 21.8-25.17 15.48-4.426.87-.66 2.5-1.903 43.05-32.81 21.92-16.71 18.24-2.713 17.92-2.684 17.72-2.162 1.58-.7 4.78-2.114L382.42 9.83l26.81-11.845 19.39.05 18.93.06 18.45.701 17.85.701L501.21.939l16.66 1.452 16.18 2.282 15.43 2.353 15 3.284 14.24 3.414 13.87 4.476 13.15 4.665 12.84 5.817 12.16 6.108 79.48 2.072 9.1 8.18 8.17 9.271 1.87.41 40.04 8.841 14.73 3.254.99.46 37.74 17.672 1.43 1.282 21.18 19.063 7.83 20.805-3.43 19.283-2.66 3.244-1.11 2.563.69.681-.51.26-2.55 3.555-6.84 6.568-7.35 6.377-8.71 6.178-4.51 2.953-4.73 3.094M790.52-39.52l2.08 1.372 26.93 17.691 7.41 13.917 2.56 3.474 12.76 17.27 3.32 13.868" />
        <path
            d="M86.03 340.339l.98-4.015.45-1.362 8.65-30.967.78-2.233.86-1.772 3.04-5.617 10.74-21.356 14.52-30.466 3.7-5.767 11.16-14.238 12.29-15.679 22.68-28.924-.6-.872 3.52-4.535 5.5-4.996 50.73-46.076 1.31-1.181 10.73-2.864 10.09-2.703 3.62-2.042 27.46-15.529 56.5-31.939 12.77-1.161 4.6-1.682 40.38-14.758 51.55-18.843 95.44-21.736 88.35-7.95 76.1 3.214 1.18.24 42.39 8.811 16.99 3.535 3.97 1.632L803.88 27l15.21 6.268 1.43 1.121 16.06 12.565 10.76 8.42 5.25 9.182 2.15 4.425 3.21 6.638.14.28.38.791 2.55 5.247 1.35 4.916 1.08 5.136 1.92 4.755" />
        <path
            d="M87.64 333.701l.38-1.552.57-3.194 1.92-13.196-.2-1.252 2.67-11.724 9.83-37.695.12-.491 3.73-4.886 4.71-3.834 4.35-4.045 1.21-1.772 4.21-6.118 9.22-13.426 31.06-45.175.22-.32 7.53-3.744 6.9-3.575 2.78-2.363.49-.41 4.01-3.414 29.94-25.411 33.78-28.685 1.72-1.041.42-.25 24.12-14.568 58-35.042 4.43-1.842 1.36-.57 36.12-15.02 50.72-21.084.14-.05 2.58-.711 45.45-12.385L517.87 2.39l88.84-11.945 78.65-.5.91.13 46.87 6.868 16.93 2.473 4.25 1.372 30.14 9.761 15.39 4.986 1.28.791 21.14 12.906 11.49 7.018 5.65 6.318 4.21 5.487 6.07 9.16 3.03 4.166.42.58" />
        <path
            d="M76.16 384.902l.34-5.606-.03-5.507-.02-.1-2.75-11.093 2.13-5.787 2.25-5.417 1.06-12.005 1.43-16.319 1.6-18.062 1.76-19.944.01-.13 5.16-5.457.29-.731 6.53-16.49 9.94-25.1 9.61-24.269.04-.11 8.32-5.197 7.81-5.036 1.16-1.442 15.78-19.603 20.15-25.02 13.72-17.051 11.05-4.425 2.02-1.622 27.3-21.957 39.95-32.139 14.11-3.273 42.65-22.988 40.27-21.706 1.96-.741.08-.03 5.86-2.223 44.73-16.93 35.12-13.297 87.1-20.564 81.44-9.051 71.41 1.622 3.57.58 50.1 8.19 5.77.941.74.26 40.87 14.368 3.87 1.362 4.44 2.693 21.43 12.996 6.6 4.004 1.76 1.963 11.15 12.425 5.34 5.637 1.25 1.712" />
        <path
            d="M76.5 379.296l.16-2.493.52-8.571.06-.901.46-.971 1.51-2.433.66-1.321 1.52-2.003.8-4.085-2.22-10.272 2.02-4.846 1.54-4.596.79-3.844 1.6-9.952 2.25-3.274 1.34-2.403-.28-2.844 5.3-26.762 4.1-18.322.02-.09.48-.961 5.99-12.115 9.47-19.183 16.94-34.291.11-.221 7.97-4.695.79-.931 14.25-16.611 23.12-26.962 15.6-18.182.13-.16 11.19-4.005 1.2-.921 25.27-19.243 42.03-32.01 3.57-2.722.12-.09 14.15-2.744 1.73-.88 37.16-18.944 46.37-23.638.05-.02 16.38-.891 2.33-.751 7-2.263 39.99-12.896L483.85-.503l88.37-16.17 80.41-4.615 54.83 4.636 13.5 1.141 4.06.981 38.34 9.251 12.35 2.974.98.46 29.25 13.747 9.47 4.445 5.36 4.386 10.65 8.72 10.18 8.33M803.94-114l26.94 15.709.92.53 25.98 23.459 16.37 24.17 7.73 23.628.6 22.267-5.28 20.184-9.67 17.731-11.68 13.607-1.19 1.392-3.44 2.833" />
        <path
            d="M139.31 608.112l-2.34-3.534-3.35-4.115-3.84-4.526-4.05-4.826-2.98-3.093-.77-1.762-1.45-3.274-.49-.691-.58-.821-.25-.481-.17-.791-.65-3.013-3.93-11.434-4.7-12.005-11.83-30.206-7.88-59.071.16-1.072 5.24-34.361 4.25-27.894.45-1.041 17.07-39.077 10.85-24.83 1.77-2.293 35.17-45.455 12.64-16.34.78-.691 54.06-47.297 13.05-11.413 2.7-1.642 76.48-46.517 4.99-3.033 92.67-40.109 95.2-26.922 16.63 7.419 85.89-11.754 73.42-1.062 8.2 11.815h.04l53.3 7.959 1.03.371 12.96 4.675 22.94 8.28 21.83 15.629 8.04 16.28-2.65 15.088-1.84 2.052-9.81 10.984M1282.23 584.173l-4.77-2.863-16.31-9.752-2.12-1.262-45.9-7.989-2.01-.351-69.47-1.311-85.81 6.417-95.33 13.927-97.56 20.435-93.2 25.361-83.74 28.454-71.07 29.746-56.09 29.095M739.45-114l16.24 4.485 9.73 2.684 39.44 18.072.42.19 28.91 20.454.72.511 19.71 22.177 11.11 22.267 3.49 21.275-2.61 19.674-7.54 17.461-8.08 9.492-1.3.77-.33 1.062-.08.19.3.911.14.27" />
        <path
            d="M76.94 463.638l-.21-1.953-.88-8.36-1.28-9.321-2.4-15.729.19-1.011.37-2.573v-.851l.69-6.418-10.22-20.525 1.83-7.639-12.98-64.568 5.34-7.509 2.88-31.568 3.21-35.143 8.93-7.068.27-.691 14.47-36.655 11.34-28.714 12.46-6.248.48-.651 29.69-40.629 15.27-20.885 15.78-4.986.69-.611 2.11-1.862 45-39.648 14.52-12.785 1.9-1.222 65.83-42.05 4.74-3.024 1.1-.51 77.57-36.094 80.41-25.781 23.03 3.233 22.42 3.665 22.21 3.674 21.45 4.145 21.1 4.145 20.17 4.646 19.67 4.616 18.58 5.146 17.96 5.086 16.73 5.667 16 5.566 14.7 6.218 13.87 6.127 12.53 6.839 11.68 6.788 10.3 7.569 9.45 7.57 8.08 8.43 7.24 8.49 1.13.44 11.56 4.596 29.98 11.894 2.3.901 1.93 1.432 22.8 16.89 3.53 2.613 12.57 22.127.36 21.226-1.09 2.293-.44.41-2.02 3.735-.94 1.511-3.08 5.287-.66 2.403-1.27 2.172-.69.981-.67.841-1.09 1.352-.78.491-1.21.42-1.24.351-.91.61-3.26 3.725-1.26 1.432-2.95 2.983-8.17 6.398-.2.27-9.25 7.269-9.29 6.348-1.42.931-10.52 6.558-.59.41" />
        <path
            d="M73.9 443.003l-2.67-3.955-11.12-16.51-26.9-63.226-12.45-66.871 3.28-69.124.16-.57 17.91-62.316 1.85-6.407.42-.781 35.95-66.65.28-.331 51.57-62.676.94-.82 64.29-55.718 75.62-47.868L345.18-114M285.43 685.576l-.61.861-5.82 8.26-1.12 1.592" />
        <path
            d="M72.82 424.721l.97-6.558.6-7.77.24-4.105.41-3.774-8.07-20.525 2.22-6.818 2.16-6.498-3.17-65.429 5.29-6.458 6.28-25.2 10.3-41.35 8.58-6.148.68-1.181 16.54-29.055 19.61-34.422 11.94-5.476 1.2-1.272 2.24-2.383 27.9-29.656 24.46-25.991 15.16-4.335 1.91-1.352 45.09-31.858 24.42-17.251 1.26-.651 3.8-1.952 56.38-28.955 18.03-9.261.03-.01 3.21-1.152 74.11-26.442 5.46-1.952 21.49 1.462 20.88 2.002 81.82-13.727 73.95-2.903 63.75 5.747.59.15 50.53 12.625 3.54 1.582 35.31 15.83 1.04.81 23.57 18.312 1.46 1.132 4.9 6.838 5.95 8.32 4.42 6.157.03.06 3.53 7.91-.09 1.572.11.791M858.9 130.816l-.7 1.592-.5 2.032-1.5 1.992-1.32 1.612-.37 1.903-.36 1.872-.76 1.071-2.25 2.844-1.46 2.222-.5.931M1100.02 462.987l-17.21-3.675-12.13-2.072-10.4-1.802-13.24-1.853-10.56-1.211-3.79-.521-83.68.261-98.85 10.252-27.27 5.156-62.61 11.845-15.65 2.953-84.55 22.908-6.83 1.852-5.74 1.552-4.35 1.181-2.48.671-23.17 2.804-22.43 3.153-21.39 3.464-20.57 3.745-19.44 3.985-18.6 4.205-17.46 4.375-16.61 4.536-15.5 4.655-14.69 4.756-13.64 4.836-12.91 4.906-11.96 4.956-11.31 5.016M140.04 610.305l-4.4-2.023-21.24-9.812-9.45-4.365-70.03-32.339-6.98-4.105L.77 541.682l-74.9-44.063-5.34-4.065-6.64-5.067-25.28-19.283L-149 440.52M895.85 136.873l-42.01 11.404-2.63.711" />
        <path
            d="M66.74 581.2l-2.81-1.292-4.82-2.553-14.27-8-26.55-13.987-63.05-32.509-8.52-5.467-19.15-14.067-5.91-4.004-46.27-31.398-24.39-16.55" />
        <path
            d="M68.22 581.67l-9.11-4.315-34.91-14.598-18.01-8.991M88.56 329.876l4.2-19.363.07-.301.02-.04.57-1.431.69-1.723.05-.08.28-.37 1.63-3.004 3.8-11.223 7.96-20.355 7.8-19.944.09-.21 3.71-3.845 7.33-9.832 21.42-28.724 20.99-28.154 4.78-4.346 1.33.141 8.51-2.614 7.17-3.053 2.91-2.223 17.95-13.707 56.24-42.921 10.36-1.973 3.63-1.842 1.62-.821 30.82-15.639 56.37-28.624 12.8-.17 99.15-31.81 95.91-17.95 86.73-4.226 72.69 6.418 1.29.34 40.52 10.913 14.08 3.795 3.33 1.692 23.39 11.895 12.54 6.377 1.28 1.292 5.54 5.536 7.62 7.63 8.34 8.35 2.82 8.85.79 2.854 2.47 8.9 1.23 8.451 1.17 11.023" />
        <path
            d="M75.14 401.563l.74-6.829.68-6.317 1.16-18.212-.48-2.874.46-.971.02-.35-1.89-9.201.69-15.159 2.35-50.911 5.07-5.807.35-1.001.51-1.462 6.38-18.212 16.09-45.916 8.24-5.566.08-.111 2.3-3.354 15.01-21.866 26.45-38.547 11.53-4.935 1.51-1.392 28.99-26.652 32.08-29.486 1.09-.72 3.16-2.093 39.78-26.402 30.21-20.044 2.87-1.362 58.51-27.684 20.33-9.631 1.74-.57 70.27-23.009 12.13-3.974 81.6-15.87 75.32-5.506 65.38 3.814.14.04 2.77.541 51.36 10.282.69.26 40.89 15.9 3.36 2.173 26.55 17.19 1.22 1.382 15.66 17.952 1.35 1.552M1177.32 485.284l-6.86-3.014-9.83-3.194-25.64-3.164-36.89-4.565-5.26-.641-88.24.991-102.51 10.883-108.38 20.215-26.6.07-26.35.581-25.87 1.071-25.42 1.552-8.5 2.763-81.03 26.362-4.58 1.492-5.39 1.752-5.47 2.303-77.28 32.429-4.15 1.742-4.08 2.193-27.89 14.988-33.25 17.861-5.73 3.084-3.29 2.293-46.77 32.659-4.07 2.844-13.98 3.774-4.9 4.986-28.86 29.376-1.39 1.411-10.37 3.705-11.36 19.994M1101.09 24.127l-13.31 10.172-1.17-.22-4.05 3.844-2.64 3.244-23.07 19.524" />
        <path
            d="M750.85 403.986l-.02-.021-.85-.47-15.34-6.979-15.6-7.118-16.3-7.199-16.97-7.279-17.95-7.298-18.9-7.269-20.17-7.169-21.33-6.978-22.83-6.718-24.09-6.328-25.65-5.847-26.78-5.246-28.19-4.556-28.91-3.754-29.92-2.884-29.99-1.982-30.4-1.022-29.64-.11-29.38.821-27.8 1.612-26.93 2.423-24.64 2.984-23.37 3.584-20.62 3.885-19.17 4.285-16.22 4.305-14.82 4.536-11.9 4.315-10.72 4.435-8 4.075-7.13 4.135-4.73 3.695-4.2 3.754" />
        <path
            d="M78.83 484.853l-.07-.06-11.2-10.803-7.74-10.142-38.47-50.421-33.93-66.45-19.26-71.396-2.65-75.021.19-.921 15.45-75.732.42-.931 34.24-75.05.41-.561.94-1.282 52.12-70.565.55-.51 70.2-65.47L175.46-114" />
        <path
            d="M92.34 524.731l-1.09-3.514.24-1.432-2.35-12.685-1.93-7.929-5.78-23.709 2.67-63.987.4-1.232.45-1.402 7.44-23.178 13.06-40.719.46-.711 21.92-33.851 20.87-32.228.71-.711 1.07-1.082 1.74-1.742 59.49-59.652 2.31-1.582 55.4-37.895 23.96-16.4 92.94-45.205 98.46-31.858 15.94 5.626 92.65-15.869 81.51-3.894 9.69 10.412 8.95 10.783 57.9 7.84 1.47.48 39.89 12.806 25.06 16.62 11.22 17.241-1 16.54-1.89 2.753-7.98 11.664-10.63 7.189" />
        <path
            d="M81.65 494.224l-.26-.24-.83-.741-8.73-7.769-4.21-5.006-2.1-2.493-2.51-2.994-3.24-3.844-38.29-45.505-.85-1.462-37.66-64.658-24.33-71.697-7.77-76.012 10.66-78.584.33-.851 30.07-77.855.53-.8 49.79-75.251.46-.46 68.73-69.685L142.66-114" />
        <path
            d="M82.78 351.652l1.21-4.035-.46-10.813 1.73-7.709M328.36 630.479l-2.97 1.492-3.99 3.003-2.17 2.183-5.95 4.826-4.42 4.015M838.28 59.97l2.56 2.803 10.27 11.284 7.78 8.53M306.83 645.147l.55.851-6.41 10.462-.93 1.292M1022.83 80.615l-3.92 2.243-27.89 15.909" />
        <path
            d="M119.8 582.151l-.7-.811-.08-.501-11.53-9.001-14.56-12.745-13.31-13.096-11.98-13.396-10.59-13.577-9.19-13.696-10.42-9.582-4.98-4.575-51.79-47.588-3.03-14.768-6.43-8.94-44.8-62.276 3.97-14.968 5.35-14.507 6.57-14.007 7.7-13.436-13.19-76.983 14.06-11.895 14.64-11.243 15.16-10.523 15.47-9.922 15.79-9.241 15.93-8.741 16.1-8.109 16.11-7.7.24-.39.82-1.352 38.9-63.847 19.58-5.567 19.47-5.076 19.34-4.856.18-.16 1.26-1.091 61.19-52.954.73-.46.21-.14 2.22-1.412 69.15-44.004 78.21-36.213 24.06 2.583 23.67 2.873 23.6 2.864 23.14 3.234 78.41-15.429 72.47-5.477 64.44 2.894 54.03 9.842 1.78.61 41.73 14.308.39.22 13.76 7.82 18.09 10.282 1.69 1.532 20.52 18.652.47.771 12.07 19.844 1.62 14.357.61 7.9.38 6.678.05 6.638.07.751.04.29-.09 1.232.06 1.402.65 1.291.47 1.131-.03.25.25.381-.53.741 1.28 2.653 1.46 2.073.07 1.171.79 1.662 1 2.133.22.69.24.421.11.18.04.31-.51 1.292.66 2.393 2.56 3.224.79 1.392 1.09 2.853 1.8 4.696.79 2.052.14.651.49 2.213 1.1 5.036.31 1.452.63 3.744.87 5.186v.05l-.09 5.527-.05 3.134-.18 2.283-.44 5.256-.06.821-1.26 4.466-1.05 3.734-.46 1.292-.61 1.662-.98 3.023-.35 1.122-.47.981-.42.6-1.04 1.803-1.71 3.934-1.18 2.333-3.79 4.716-.34.721-1.08 1.512-2.15 2.793-.42 1.562-1.02.811-.4 1.001-2.57 3.274-6.76 6.167-4.04 2.504-5.48 4.785-6.26 4.716-2.61 2.153-6.51 5.376-4.89 2.333-5.64 3.544-3.77 1.963-.92.58-10.98 5.797-5.26 3.084-2.27.551-5.39 3.834-1.9 1.512-4.71 2.673-8.1 4.996-4.85 3.595-1.26 1.021-6.6 4.235-4.7 4.856-3.53 2.543-1.28 1.332-1.7 1.772-8.34 7.659-1.95 1.792-.94.871-7.04 8.751-5.88 6.478-1.76 3.354-7.79 11.624-1.47 2.873-3.03 9.121-.02.05-3.74 8.931-.8 1.912-.06 1.973-1.3 11.914-1.42 7.98 1.23 5.466 1.8 11.294-1.46 2.313-10.5 3.304-11.77-10.303-13.11-10.422-14.48-10.423-16.14-10.412-17.7-10.203-19.55-9.992-21.08-9.531-22.86-9.091-24.07-8.39-25.54-7.73-26.14-6.828-27.07-6.017-26.87-5.026-27.19-4.165-26.11-3.174-25.84-2.363-24.01-1.492-23.32-.801-20.94-.11-20.04.441-17.35.921-16.48 1.341-13.75 1.662-56.08 59.262-2.03 2.132-1.4 1.482-1.8 1.902-24.2 41.751-14.42 24.86-.58 1.001-11.66 41.66-.96 3.425-5.97 21.315-.25.911 1.12 63.797 4.69 16.56 2.4 8.501 1.16 4.105 1.16 4.105 2.11 7.819 1.09 3.514 1.44 3.414 2.02 6.288 3.37 8.32.91 2.954 1.49 2.653 4.83 7.919 2.34 3.875 2.45 3.745 3.7 6.768.92 2.022 2.58 4.496.74.51 4.37 6.578.07.12 5.6 8.431 4.45 7.639 1.9 3.524 2.63 3.674.96.761 1.66 2.413.53 1.242.55.771.47.661.28.39.29.01 2.15 2.843 3.28 4.416 24.6 28.164 5.6 6.548 2.14 2.302 4.11 4.997 5.13 5.156 7.76 6.578 7.5 6.788 1.56 1.452 4.33 4.085 2.18 2.222.78.831 18.13 15.219 1.05.881 2.89 2.423 2.91 2.372 1.81 1.592 1.43 1.302" />
        <path
            d="M121.82 586.176l-.51-.271-11.51-6.157-65.54-35.053-10.1-6.838-7.1-4.816-7.58-5.136-66.9-45.355-3.04-2.683-4.78-4.225-5.58-4.936-71.09-62.786-2.25-2.723-14.84-17.962M96.59 303.724l1.06-2.432.59-.661.82-.371 5.95-9.311 38.12-59.672 3.89-3.945 1.14-1.161 2.35-2.383 1.62-1.642 55.16-55.958 9.56-2.122 9.41-1.872 11.36-1.442 11.49-1.132 13.71-.64 14.1-.251 93.25-47.317 16.15 2.473 17.93 3.474 18.13 4.045 19.66 5.126 19.7 5.777 20.75 6.909 20.48 7.579 20.87 8.68 20.16 9.332 19.84 10.312 18.66 10.853 60.7-8.26 11.54 13.106 10.06 13.536 8.38 13.537 6.75 13.686 5.09 13.467 3.53 13.386 2.07 13.015.76 12.736-.3 10.312M1215.81 503.115l-1.77-.971-.08-.2-5-2.663-15.16-7.179-.1-.04-15.86-6.698-2.67-.971-4.71-2.123-6.43-2.773-11.4-3.935-6.46-1.922-11.21-2.844-7.56-1.872-12.45-3.805-11.37-1.942-9.71-2.163-7.87-2.032-12.31-2.343-9.18-1.482-12.48-2.012-9.61-1.322-12.63-1.752-9.37-1.061-13.22-1.512-9.13-.871-13.82-1.322-46.18-2.112-45.61-.25-15.57.28-6.13-.18-21.78.14-23.59.971-8.21.481-23.14.991-22.68 1.281-41.51 7.86-40.54 7.679-3.05.581-20.95 2.803-43.66 12.896-35.17 10.402-7.54 2.223-18.06 3.975-17.53 4.095-16.84 4.225-42.43 19.684-24.85 11.524-5.88 2.733-43.51 25.851-5.18 3.074-3.81 2.853-17.96 13.627-22.55 16.339-9.41 6.408-7.91 5.667-2.78 2.133-6.33 4.545-2.17 1.031-2.47 1.852-4.04 4.115-2.78 2.523-3.91 4.065-1.92 2.133-.12.14-8.83 11.444-4.29 5.356-2.19 3.585-1.41 2.192-1.6 1.953-2.05 2.533-.63.861-1.11 2.843-2.32 3.925-.26.13-.21 1.132-.82 1.091-1.27 1.352-1.65 1.952-.36.571-1.6 3.464-.7 4.165-.91 2.483-1.88 2.893-2.09 2.433-2.34 2.663-.87 2.924-1.27 2.012-1.13 1.062-1.02 1.982-2.27 3.564-1.92 3.565" />
        <path
            d="M94.2 306.848l.76-1.371.31-1.372.5-1.242 7.87-17.531 15.52-36.714.12-.29.15-.341 4.43-3.694 2.19-1.742 1.67-1.723 4.92-3.364 4.51-3.133 5.68-5.998 1.25-1.321 2.49-2.623 1.67-1.772 51.07-53.936 7.98-2.493 2.81-1.932 24.02-16.56 55.79-38.476 11.12-1.102 12.55-.41 12.4-.09 14.09.7 14.14 1.102 15.96 1.992 98.54-34.471 97.28-20.075 13.56 6.829 13.82 8.09 13.36 8.57 13.37 9.791 12.73 10.263 68.89.491 7.32 12.104 48.42 8.53.03.01 32.82 12.646 17.97 14.928 5.65 14.898-5 13.756-4.24 3.875-8.07 7.389M1175.09-55.84l-8.06 10.102-18.69 22.728-18.38 22.537" />
    </g>
</svg>